<?xml version="1.0" encoding="utf-8"?>
<!-- Generator: Adobe Illustrator 27.3.1, SVG Export Plug-In . SVG Version: 6.00 Build 0)  -->
<svg version="1.1" id="Layer_1" xmlns="http://www.w3.org/2000/svg" xmlns:xlink="http://www.w3.org/1999/xlink" x="0px"
	y="0px" viewBox="0 0 24 24" preserveAspectRatio="xMidYMid slice" style="enable-background:new 0 0 24 24;"
	xml:space="preserve">
	<style type="text/css">
		.st0 {
			fill: #3629BC;
		}
	</style>
	<path class="st0" d="M15.3,15.6c1.2,0,2.1,0.9,2.1,2.1l0,1.2c0.1,2.6-1.8,4-5.3,4c-3.5,0-5.5-1.3-5.5-3.9v-1.2
	c0-1.2,0.9-2.1,2.1-2.1H15.3z M2.1,9.6h5.2c-0.2,0.8-0.2,1.7,0,2.5c0.2,0.8,0.7,1.5,1.3,2.1l0.2,0.2l-0.1,0c-0.7,0-1.4,0.2-2,0.7
	c-0.6,0.4-1,1-1.2,1.7l0,0C2,16.8,0,15.5,0,12.9v-1.2C0,10.5,0.9,9.6,2.1,9.6z M21.9,9.6c1.2,0,2.1,0.9,2.1,2.1l0,1.2
	c0.1,2.6-1.8,4-5.3,4l-0.2,0c-0.2-0.7-0.6-1.2-1.1-1.7c-0.5-0.4-1.2-0.7-1.8-0.7l-0.2,0l-0.1,0c0.7-0.6,1.2-1.3,1.4-2.2
	c0.3-0.8,0.3-1.7,0.1-2.6L21.9,9.6z M12,7.2c0.5,0,0.9,0.1,1.4,0.3c0.4,0.2,0.8,0.4,1.2,0.8c0.3,0.3,0.6,0.7,0.8,1.2
	c0.2,0.4,0.3,0.9,0.3,1.4s-0.1,0.9-0.3,1.4c-0.2,0.4-0.4,0.8-0.8,1.2c-0.3,0.3-0.7,0.6-1.2,0.8c-0.4,0.2-0.9,0.3-1.4,0.3
	c-1,0-1.9-0.4-2.5-1.1c-0.7-0.7-1.1-1.6-1.1-2.5s0.4-1.9,1.1-2.5C10.1,7.6,11,7.2,12,7.2z M5.4,1.2c1,0,1.9,0.4,2.5,1.1S9,3.8,9,4.8
	S8.6,6.7,7.9,7.3C7.3,8,6.4,8.4,5.4,8.4S3.5,8,2.9,7.3C2.2,6.7,1.8,5.8,1.8,4.8s0.4-1.9,1.1-2.5C3.5,1.6,4.4,1.2,5.4,1.2z M18.6,1.2
	c1,0,1.9,0.4,2.5,1.1c0.7,0.7,1.1,1.6,1.1,2.5s-0.4,1.9-1.1,2.5c-0.7,0.7-1.6,1.1-2.5,1.1S16.7,8,16.1,7.3C15.4,6.7,15,5.8,15,4.8
	s0.4-1.9,1.1-2.5C16.7,1.6,17.6,1.2,18.6,1.2z" />
</svg>
