<?xml version="1.0" encoding="utf-8"?>
<!-- Generator: Adobe Illustrator 27.3.1, SVG Export Plug-In . SVG Version: 6.00 Build 0)  -->
<svg version="1.1" id="Layer_1" xmlns="http://www.w3.org/2000/svg" xmlns:xlink="http://www.w3.org/1999/xlink" x="0px"
	y="0px" viewBox="0 0 24 26.4" preserveAspectRatio="xMidYMid slice" enable-background="new 0 0 24 26.4"
	xml:space="preserve">
	<path fill="#3629BC" d="M21.6,12.1V4.8c0-0.6-0.3-1.2-0.7-1.7c-0.5-0.5-1.1-0.7-1.7-0.7h-5C13.7,1,12.4,0,10.8,0S7.9,1,7.4,2.4h-5
	C1.1,2.4,0,3.5,0,4.8v16.8c0,0.6,0.3,1.2,0.7,1.7C1.2,23.7,1.8,24,2.4,24h7.3c1.5,1.5,3.6,2.4,5.9,2.4c4.6,0,8.4-3.8,8.4-8.4
	C24,15.7,23.1,13.6,21.6,12.1z M10.8,2.4c0.7,0,1.2,0.5,1.2,1.2s-0.5,1.2-1.2,1.2c-0.7,0-1.2-0.5-1.2-1.2S10.1,2.4,10.8,2.4z
	 M3.6,7.2H18v2.4H3.6V7.2z M7.3,19.2H3.6v-2.4h3.7c-0.1,0.4-0.1,0.8-0.1,1.2S7.2,18.8,7.3,19.2z M3.6,14.4V12h6.1
	C9,12.7,8.4,13.5,8,14.4H3.6z M15.6,24c-3.3,0-6-2.7-6-6s2.7-6,6-6s6,2.7,6,6S18.9,24,15.6,24z M16.2,18.3l3.4,2l-0.9,1.5l-4.3-2.6
	v-6h1.8V18.3z" />
</svg>
