<?xml version="1.0" encoding="utf-8"?>
<!-- Generator: Adobe Illustrator 27.3.1, SVG Export Plug-In . SVG Version: 6.00 Build 0)  -->
<svg version="1.1" id="Layer_1" xmlns="http://www.w3.org/2000/svg" xmlns:xlink="http://www.w3.org/1999/xlink" x="0px" y="0px"
	 viewBox="0 0 24 24" style="enable-background:new 0 0 24 24;" xml:space="preserve">
<style type="text/css">
	.st0{fill:#3629BC;}
</style>
<path class="st0" d="M3.3,5.5c-0.7,0-1.1,0.4-1.1,1.1s0.4,1.1,1.1,1.1h2.2V5.5H3.3z M2.2,9.8c-0.7,0-1.1,0.4-1.1,1.1
	c0,0.7,0.4,1.1,1.1,1.1h3.3V9.8H2.2z M1.1,14.2c-0.7,0-1.1,0.4-1.1,1.1s0.4,1.1,1.1,1.1h4.4v-2.2H1.1z M21.8,3.3h-12
	c-1.2,0-2.2,1-2.2,2.2v15.3l4.4-4.4h9.8c1.2,0,2.2-1,2.2-2.2V5.5C24,4.3,23,3.3,21.8,3.3z"/>
</svg>
