<?xml version="1.0" encoding="utf-8"?>
<!-- Generator: Adobe Illustrator 27.3.1, SVG Export Plug-In . SVG Version: 6.00 Build 0)  -->
<svg version="1.1" id="Layer_1" xmlns="http://www.w3.org/2000/svg" xmlns:xlink="http://www.w3.org/1999/xlink" x="0px"
	y="0px" viewBox="0 0 24 24" preserveAspectRatio="xMidYMid slice" style="enable-background:new 0 0 24 24;"
	xml:space="preserve">
	<style type="text/css">
		.st0 {
			fill: #3629BC;
		}
	</style>
	<path class="st0" d="M10.8,18h2.4v-7.2h-2.4V18z M12,8.4c0.3,0,0.6-0.1,0.9-0.3c0.2-0.2,0.3-0.5,0.3-0.9c0-0.3-0.1-0.6-0.3-0.9
	C12.6,6.1,12.3,6,12,6c-0.3,0-0.6,0.1-0.9,0.3c-0.2,0.2-0.3,0.5-0.3,0.9c0,0.3,0.1,0.6,0.3,0.9C11.4,8.3,11.7,8.4,12,8.4z M12,24
	c-2.8-0.7-5.1-2.3-6.9-4.8S2.4,14,2.4,10.9V3.6L12,0l9.6,3.6v7.3c0,3-0.9,5.8-2.7,8.3C17.1,21.7,14.8,23.3,12,24z" />
</svg>
