<svg xmlns="http://www.w3.org/2000/svg" version="1.1" xmlns:xlink="http://www.w3.org/1999/xlink"
	xmlns:svgjs="http://svgjs.dev/svgjs" viewBox="0 0 800 800" preserveAspectRatio="xMidYMid slice">
	<g>
		<circle r="56" cx="0" cy="0" fill="hsl(277, 95%, 67%)"></circle>
		<circle r="56" cx="0" cy="112" fill="hsl(221, 95%, 67%)"></circle>
		<circle r="56" cx="0" cy="224" fill="hsl(247, 95%, 67%)"></circle>
		<circle r="56" cx="0" cy="336" fill="hsl(306, 95%, 67%)"></circle>
		<circle r="56" cx="0" cy="448" fill="hsl(245, 95%, 67%)"></circle>
		<circle r="56" cx="0" cy="560" fill="hsl(286, 95%, 67%)"></circle>
		<circle r="56" cx="0" cy="672" fill="hsl(245, 95%, 67%)"></circle>
		<circle r="56" cx="0" cy="784" fill="hsl(240, 95%, 67%)"></circle>
		<circle r="56" cx="112" cy="0" fill="hsl(279, 95%, 67%)"></circle>
		<circle r="56" cx="112" cy="112" fill="hsl(293, 95%, 67%)"></circle>
		<circle r="56" cx="112" cy="224" fill="hsl(313, 95%, 67%)"></circle>
		<circle r="56" cx="112" cy="336" fill="hsl(269, 95%, 67%)"></circle>
		<circle r="56" cx="112" cy="448" fill="hsl(248, 95%, 67%)"></circle>
		<circle r="56" cx="112" cy="560" fill="hsl(261, 95%, 67%)"></circle>
		<circle r="56" cx="112" cy="672" fill="hsl(307, 95%, 67%)"></circle>
		<circle r="56" cx="112" cy="784" fill="hsl(310, 95%, 67%)"></circle>
		<circle r="56" cx="224" cy="0" fill="hsl(267, 95%, 67%)"></circle>
		<circle r="56" cx="224" cy="112" fill="hsl(310, 95%, 67%)"></circle>
		<circle r="56" cx="224" cy="224" fill="hsl(237, 95%, 67%)"></circle>
		<circle r="56" cx="224" cy="336" fill="hsl(248, 95%, 67%)"></circle>
		<circle r="56" cx="224" cy="448" fill="hsl(326, 95%, 67%)"></circle>
		<circle r="56" cx="224" cy="560" fill="hsl(319, 95%, 67%)"></circle>
		<circle r="56" cx="224" cy="672" fill="hsl(281, 95%, 67%)"></circle>
		<circle r="56" cx="224" cy="784" fill="hsl(309, 95%, 67%)"></circle>
		<circle r="56" cx="336" cy="0" fill="hsl(194, 95%, 67%)"></circle>
		<circle r="56" cx="336" cy="112" fill="hsl(225, 95%, 67%)"></circle>
		<circle r="56" cx="336" cy="224" fill="hsl(234, 95%, 67%)"></circle>
		<circle r="56" cx="336" cy="336" fill="hsl(197, 95%, 67%)"></circle>
		<circle r="56" cx="336" cy="448" fill="hsl(282, 95%, 67%)"></circle>
		<circle r="56" cx="336" cy="560" fill="hsl(329, 95%, 67%)"></circle>
		<circle r="56" cx="336" cy="672" fill="hsl(266, 95%, 67%)"></circle>
		<circle r="56" cx="336" cy="784" fill="hsl(250, 95%, 67%)"></circle>
		<circle r="56" cx="448" cy="0" fill="hsl(226, 95%, 67%)"></circle>
		<circle r="56" cx="448" cy="112" fill="hsl(239, 95%, 67%)"></circle>
		<circle r="56" cx="448" cy="224" fill="hsl(321, 95%, 67%)"></circle>
		<circle r="56" cx="448" cy="336" fill="hsl(280, 95%, 67%)"></circle>
		<circle r="56" cx="448" cy="448" fill="hsl(348, 95%, 67%)"></circle>
		<circle r="56" cx="448" cy="560" fill="hsl(289, 95%, 67%)"></circle>
		<circle r="56" cx="448" cy="672" fill="hsl(285, 95%, 67%)"></circle>
		<circle r="56" cx="448" cy="784" fill="hsl(309, 95%, 67%)"></circle>
		<circle r="56" cx="560" cy="0" fill="hsl(271, 95%, 67%)"></circle>
		<circle r="56" cx="560" cy="112" fill="hsl(304, 95%, 67%)"></circle>
		<circle r="56" cx="560" cy="224" fill="hsl(329, 95%, 67%)"></circle>
		<circle r="56" cx="560" cy="336" fill="hsl(232, 95%, 67%)"></circle>
		<circle r="56" cx="560" cy="448" fill="hsl(249, 95%, 67%)"></circle>
		<circle r="56" cx="560" cy="560" fill="hsl(244, 95%, 67%)"></circle>
		<circle r="56" cx="560" cy="672" fill="hsl(324, 95%, 67%)"></circle>
		<circle r="56" cx="560" cy="784" fill="hsl(253, 95%, 67%)"></circle>
		<circle r="56" cx="672" cy="0" fill="hsl(272, 95%, 67%)"></circle>
		<circle r="56" cx="672" cy="112" fill="hsl(203, 95%, 67%)"></circle>
		<circle r="56" cx="672" cy="224" fill="hsl(317, 95%, 67%)"></circle>
		<circle r="56" cx="672" cy="336" fill="hsl(272, 95%, 67%)"></circle>
		<circle r="56" cx="672" cy="448" fill="hsl(232, 95%, 67%)"></circle>
		<circle r="56" cx="672" cy="560" fill="hsl(254, 95%, 67%)"></circle>
		<circle r="56" cx="672" cy="672" fill="hsl(318, 95%, 67%)"></circle>
		<circle r="56" cx="672" cy="784" fill="hsl(263, 95%, 67%)"></circle>
		<circle r="56" cx="784" cy="0" fill="hsl(353, 95%, 67%)"></circle>
		<circle r="56" cx="784" cy="112" fill="hsl(286, 95%, 67%)"></circle>
		<circle r="56" cx="784" cy="224" fill="hsl(255, 95%, 67%)"></circle>
		<circle r="56" cx="784" cy="336" fill="hsl(305, 95%, 67%)"></circle>
		<circle r="56" cx="784" cy="448" fill="hsl(312, 95%, 67%)"></circle>
		<circle r="56" cx="784" cy="560" fill="hsl(252, 95%, 67%)"></circle>
		<circle r="56" cx="784" cy="672" fill="hsl(309, 95%, 67%)"></circle>
		<circle r="56" cx="784" cy="784" fill="hsl(270, 95%, 67%)"></circle>
		<circle r="56" cx="896" cy="0" fill="hsl(353, 95%, 67%)"></circle>
		<circle r="56" cx="896" cy="112" fill="hsl(286, 95%, 67%)"></circle>
		<circle r="56" cx="896" cy="224" fill="hsl(255, 95%, 67%)"></circle>
		<circle r="56" cx="896" cy="336" fill="hsl(305, 95%, 67%)"></circle>
		<circle r="56" cx="896" cy="448" fill="hsl(312, 95%, 67%)"></circle>
		<circle r="56" cx="896" cy="560" fill="hsl(252, 95%, 67%)"></circle>
		<circle r="56" cx="896" cy="672" fill="hsl(309, 95%, 67%)"></circle>
		<circle r="56" cx="896" cy="784" fill="hsl(270, 95%, 67%)"></circle>
	</g>
	<g transform="matrix(1,0,0,1,-56,0)">
		<circle r="56" cx="0" cy="56" fill="hsl(233, 95%, 67%)"></circle>
		<circle r="56" cx="0" cy="168" fill="hsl(235, 95%, 67%)"></circle>
		<circle r="56" cx="0" cy="280" fill="hsl(274, 95%, 67%)"></circle>
		<circle r="56" cx="0" cy="392" fill="hsl(283, 95%, 67%)"></circle>
		<circle r="56" cx="0" cy="504" fill="hsl(261, 95%, 67%)"></circle>
		<circle r="56" cx="0" cy="616" fill="hsl(275, 95%, 67%)"></circle>
		<circle r="56" cx="0" cy="728" fill="hsl(231, 95%, 67%)"></circle>
		<circle r="56" cx="0" cy="840" fill="hsl(240, 95%, 67%)"></circle>
		<circle r="56" cx="112" cy="56" fill="hsl(266, 95%, 67%)"></circle>
		<circle r="56" cx="112" cy="168" fill="hsl(332, 95%, 67%)"></circle>
		<circle r="56" cx="112" cy="280" fill="hsl(287, 95%, 67%)"></circle>
		<circle r="56" cx="112" cy="392" fill="hsl(259, 95%, 67%)"></circle>
		<circle r="56" cx="112" cy="504" fill="hsl(250, 95%, 67%)"></circle>
		<circle r="56" cx="112" cy="616" fill="hsl(289, 95%, 67%)"></circle>
		<circle r="56" cx="112" cy="728" fill="hsl(317, 95%, 67%)"></circle>
		<circle r="56" cx="112" cy="840" fill="hsl(310, 95%, 67%)"></circle>
		<circle r="56" cx="224" cy="56" fill="hsl(278, 95%, 67%)"></circle>
		<circle r="56" cx="224" cy="168" fill="hsl(285, 95%, 67%)"></circle>
		<circle r="56" cx="224" cy="280" fill="hsl(211, 95%, 67%)"></circle>
		<circle r="56" cx="224" cy="392" fill="hsl(293, 95%, 67%)"></circle>
		<circle r="56" cx="224" cy="504" fill="hsl(326, 95%, 67%)"></circle>
		<circle r="56" cx="224" cy="616" fill="hsl(297, 95%, 67%)"></circle>
		<circle r="56" cx="224" cy="728" fill="hsl(272, 95%, 67%)"></circle>
		<circle r="56" cx="224" cy="840" fill="hsl(309, 95%, 67%)"></circle>
		<circle r="56" cx="336" cy="56" fill="hsl(204, 95%, 67%)"></circle>
		<circle r="56" cx="336" cy="168" fill="hsl(236, 95%, 67%)"></circle>
		<circle r="56" cx="336" cy="280" fill="hsl(214, 95%, 67%)"></circle>
		<circle r="56" cx="336" cy="392" fill="hsl(221, 95%, 67%)"></circle>
		<circle r="56" cx="336" cy="504" fill="hsl(311, 95%, 67%)"></circle>
		<circle r="56" cx="336" cy="616" fill="hsl(312, 95%, 67%)"></circle>
		<circle r="56" cx="336" cy="728" fill="hsl(228, 95%, 67%)"></circle>
		<circle r="56" cx="336" cy="840" fill="hsl(250, 95%, 67%)"></circle>
		<circle r="56" cx="448" cy="56" fill="hsl(216, 95%, 67%)"></circle>
		<circle r="56" cx="448" cy="168" fill="hsl(309, 95%, 67%)"></circle>
		<circle r="56" cx="448" cy="280" fill="hsl(291, 95%, 67%)"></circle>
		<circle r="56" cx="448" cy="392" fill="hsl(319, 95%, 67%)"></circle>
		<circle r="56" cx="448" cy="504" fill="hsl(318, 95%, 67%)"></circle>
		<circle r="56" cx="448" cy="616" fill="hsl(292, 95%, 67%)"></circle>
		<circle r="56" cx="448" cy="728" fill="hsl(279, 95%, 67%)"></circle>
		<circle r="56" cx="448" cy="840" fill="hsl(309, 95%, 67%)"></circle>
		<circle r="56" cx="560" cy="56" fill="hsl(274, 95%, 67%)"></circle>
		<circle r="56" cx="560" cy="168" fill="hsl(346, 95%, 67%)"></circle>
		<circle r="56" cx="560" cy="280" fill="hsl(280, 95%, 67%)"></circle>
		<circle r="56" cx="560" cy="392" fill="hsl(241, 95%, 67%)"></circle>
		<circle r="56" cx="560" cy="504" fill="hsl(233, 95%, 67%)"></circle>
		<circle r="56" cx="560" cy="616" fill="hsl(307, 95%, 67%)"></circle>
		<circle r="56" cx="560" cy="728" fill="hsl(300, 95%, 67%)"></circle>
		<circle r="56" cx="560" cy="840" fill="hsl(253, 95%, 67%)"></circle>
		<circle r="56" cx="672" cy="56" fill="hsl(230, 95%, 67%)"></circle>
		<circle r="56" cx="672" cy="168" fill="hsl(252, 95%, 67%)"></circle>
		<circle r="56" cx="672" cy="280" fill="hsl(333, 95%, 67%)"></circle>
		<circle r="56" cx="672" cy="392" fill="hsl(234, 95%, 67%)"></circle>
		<circle r="56" cx="672" cy="504" fill="hsl(241, 95%, 67%)"></circle>
		<circle r="56" cx="672" cy="616" fill="hsl(299, 95%, 67%)"></circle>
		<circle r="56" cx="672" cy="728" fill="hsl(310, 95%, 67%)"></circle>
		<circle r="56" cx="672" cy="840" fill="hsl(263, 95%, 67%)"></circle>
		<circle r="56" cx="784" cy="56" fill="hsl(330, 95%, 67%)"></circle>
		<circle r="56" cx="784" cy="168" fill="hsl(241, 95%, 67%)"></circle>
		<circle r="56" cx="784" cy="280" fill="hsl(286, 95%, 67%)"></circle>
		<circle r="56" cx="784" cy="392" fill="hsl(309, 95%, 67%)"></circle>
		<circle r="56" cx="784" cy="504" fill="hsl(287, 95%, 67%)"></circle>
		<circle r="56" cx="784" cy="616" fill="hsl(260, 95%, 67%)"></circle>
		<circle r="56" cx="784" cy="728" fill="hsl(328, 95%, 67%)"></circle>
		<circle r="56" cx="784" cy="840" fill="hsl(270, 95%, 67%)"></circle>
		<circle r="56" cx="896" cy="56" fill="hsl(330, 95%, 67%)"></circle>
		<circle r="56" cx="896" cy="168" fill="hsl(241, 95%, 67%)"></circle>
		<circle r="56" cx="896" cy="280" fill="hsl(286, 95%, 67%)"></circle>
		<circle r="56" cx="896" cy="392" fill="hsl(309, 95%, 67%)"></circle>
		<circle r="56" cx="896" cy="504" fill="hsl(287, 95%, 67%)"></circle>
		<circle r="56" cx="896" cy="616" fill="hsl(260, 95%, 67%)"></circle>
		<circle r="56" cx="896" cy="728" fill="hsl(328, 95%, 67%)"></circle>
		<circle r="56" cx="896" cy="840" fill="hsl(270, 95%, 67%)"></circle>
	</g>
</svg>
