<?xml version="1.0" encoding="utf-8"?>
<!-- Generator: Adobe Illustrator 27.3.1, SVG Export Plug-In . SVG Version: 6.00 Build 0)  -->
<svg version="1.1" id="Layer_1" xmlns="http://www.w3.org/2000/svg" xmlns:xlink="http://www.w3.org/1999/xlink" x="0px" y="0px"
	 viewBox="0 0 24 24" style="enable-background:new 0 0 24 24;" xml:space="preserve">
<style type="text/css">
	.st0{fill:#3629BC;}
</style>
<path class="st0" d="M21.6,1.2c0.6,0,1.2,0.3,1.7,0.7C23.7,2.4,24,3,24,3.6v16.8c0,0.6-0.3,1.2-0.7,1.7c-0.4,0.4-1.1,0.7-1.7,0.7
	H2.4c-0.6,0-1.2-0.3-1.7-0.7C0.3,21.6,0,21,0,20.4V3.6C0,3,0.3,2.4,0.7,1.9c0.4-0.4,1.1-0.7,1.7-0.7H21.6z M18,15.6H6
	c-0.3,0-0.6,0.1-0.8,0.4c-0.2,0.2-0.4,0.5-0.4,0.8s0.1,0.6,0.4,0.8C5.4,17.9,5.7,18,6,18h12c0.3,0,0.6-0.1,0.8-0.4
	c0.2-0.2,0.4-0.5,0.4-0.8s-0.1-0.6-0.4-0.8C18.6,15.7,18.3,15.6,18,15.6z M9.6,6H7.2C6.6,6,6,6.2,5.6,6.6c-0.4,0.4-0.7,1-0.8,1.6
	l0,0.2v2.4c0,0.6,0.2,1.2,0.6,1.6c0.4,0.4,1,0.7,1.6,0.8l0.2,0h2.4c0.6,0,1.2-0.2,1.6-0.6c0.4-0.4,0.7-1,0.8-1.6l0-0.2V8.4
	c0-0.6-0.2-1.2-0.6-1.6c-0.4-0.4-1-0.7-1.6-0.8L9.6,6z M18,10.8h-3.6c-0.3,0-0.6,0.1-0.8,0.3c-0.2,0.2-0.4,0.5-0.4,0.8
	c0,0.3,0.1,0.6,0.3,0.8c0.2,0.2,0.5,0.4,0.8,0.4l0.1,0H18c0.3,0,0.6-0.1,0.8-0.3c0.2-0.2,0.4-0.5,0.4-0.8c0-0.3-0.1-0.6-0.3-0.8
	c-0.2-0.2-0.5-0.4-0.8-0.4L18,10.8z M9.6,8.4v2.4H7.2V8.4H9.6z M18,6h-3.6c-0.3,0-0.6,0.1-0.8,0.4c-0.2,0.2-0.4,0.5-0.4,0.8
	c0,0.3,0.1,0.6,0.4,0.8c0.2,0.2,0.5,0.4,0.8,0.4H18c0.3,0,0.6-0.1,0.8-0.4c0.2-0.2,0.4-0.5,0.4-0.8c0-0.3-0.1-0.6-0.4-0.8
	C18.6,6.1,18.3,6,18,6z"/>
</svg>
