<svg width="80" height="80" viewBox="0 0 80 80" preserveAspectRatio="xMidYMid slice" fill="none"
    xmlns="http://www.w3.org/2000/svg">
    <g clip-path="url(#clip0_7_34)">
        <mask id="mask0_7_34" style="mask-type:luminance" maskUnits="userSpaceOnUse" x="0" y="0" width="80" height="80">
            <path d="M80 0H0V80H80V0Z" fill="white" />
        </mask>
        <g mask="url(#mask0_7_34)">
            <path d="M80 0H0V80H80V0Z" fill="#4F34D5" />
            <path
                d="M-23.2305 15.3953C-26.92 41.6469 -8.62963 65.919 17.622 69.6084C43.8737 73.2979 68.1458 55.0076 71.8352 28.7559C75.5247 2.50421 57.2343 -21.7679 30.9827 -25.4573C4.73099 -29.1467 -19.5411 -10.8564 -23.2305 15.3953Z"
                fill="#20D0F3" />
            <path d="M25.4371 43.0852C30.1476 44.6672 34.5488 44.0487 38.6407 41.2295" stroke="black"
                stroke-width="2.22222" stroke-linecap="round" />
            <path
                d="M18.08 30.6548C17.9092 29.4394 17.0318 28.558 16.1203 28.6861C15.2088 28.8142 14.6083 29.9033 14.7791 31.1187C14.9499 32.334 15.8273 33.2154 16.7388 33.0873C17.6504 32.9592 18.2508 31.8701 18.08 30.6548Z"
                fill="black" />
            <path
                d="M44.4872 26.9435C44.3164 25.7281 43.439 24.8467 42.5274 24.9748C41.6159 25.103 41.0155 26.192 41.1863 27.4074C41.3571 28.6228 42.2345 29.5041 43.146 29.376C44.0575 29.2479 44.658 28.1588 44.4872 26.9435Z"
                fill="black" />
        </g>
    </g>
    <defs>
        <clipPath id="clip0_7_34">
            <rect width="80" height="80" fill="white" />
        </clipPath>
    </defs>
</svg>
