<svg width="80" height="80" viewBox="0 0 80 80" fill="none" xmlns="http://www.w3.org/2000/svg">
<g clip-path="url(#clip0_7_53)">
<mask id="mask0_7_53" style="mask-type:luminance" maskUnits="userSpaceOnUse" x="0" y="0" width="80" height="80">
<path d="M80 0H0V80H80V0Z" fill="white"/>
</mask>
<g mask="url(#mask0_7_53)">
<path d="M80 0H0V80H80V0Z" fill="#FDAEE0"/>
<g filter="url(#filter0_f_7_53)">
<path d="M73.9785 76.1464L105.674 77.1592L134.414 60.5662L81.1642 -31.6655L30.7979 -2.58654L31.8192 20.8664L76.885 41.7516L73.9785 76.1464Z" fill="#EDD75A"/>
</g>
<g style="mix-blend-mode:overlay" filter="url(#filter1_f_7_53)">
<path d="M35.4509 38.8922L36.0173 86.5859L91.423 112.064L160.38 45.4853L94.2401 -14.1185L74.7526 13.8649L109.922 21.5165L114.212 75.3397L35.4509 38.8922Z" fill="#73B06F"/>
</g>
</g>
</g>
<defs>
<filter id="filter0_f_7_53" x="9.79794" y="-52.6655" width="145.616" height="150.825" filterUnits="userSpaceOnUse" color-interpolation-filters="sRGB">
<feFlood flood-opacity="0" result="BackgroundImageFix"/>
<feBlend mode="normal" in="SourceGraphic" in2="BackgroundImageFix" result="shape"/>
<feGaussianBlur stdDeviation="10.5" result="effect1_foregroundBlur_7_53"/>
</filter>
<filter id="filter1_f_7_53" x="14.4509" y="-35.1185" width="166.929" height="168.182" filterUnits="userSpaceOnUse" color-interpolation-filters="sRGB">
<feFlood flood-opacity="0" result="BackgroundImageFix"/>
<feBlend mode="normal" in="SourceGraphic" in2="BackgroundImageFix" result="shape"/>
<feGaussianBlur stdDeviation="10.5" result="effect1_foregroundBlur_7_53"/>
</filter>
<clipPath id="clip0_7_53">
<rect width="80" height="80" fill="white"/>
</clipPath>
</defs>
</svg>
