<?xml version="1.0" encoding="UTF-8"?><svg id="Layer_1" xmlns="http://www.w3.org/2000/svg" viewBox="0 0 725.32 726.79"><path d="m93.32,47.04c-4.05,15.46-13.78,28.83-22.32,37.18-8.86,8.43-16.54,11.84-23.87,9.29-12.98-6.06-34.25-27.8-44.11-41.62-4.21-7.63-1.9-15.04,6.35-24.17C17.46,18.95,31.49,8.46,47.13,3.21c31.92-11.84,55.33,12.19,46.19,43.83Z" fill="#be5bfb"/><path d="m93.32,215.04c-4.05,15.46-13.78,28.83-22.32,37.18-8.86,8.43-16.54,11.84-23.87,9.29-12.98-6.06-34.25-27.8-44.11-41.62-4.21-7.63-1.9-15.04,6.35-24.17,8.09-8.77,22.13-19.26,37.76-24.51,31.92-11.84,55.33,12.19,46.19,43.83Z" fill="#6d5bfb"/><path d="m93.32,299.04c-4.05,15.46-13.78,28.83-22.32,37.18-8.86,8.43-16.54,11.84-23.87,9.29-12.98-6.06-34.25-27.8-44.11-41.62-4.21-7.63-1.9-15.04,6.35-24.17,8.09-8.77,22.13-19.26,37.76-24.51,31.92-11.84,55.33,12.19,46.19,43.83Z" fill="#fb5beb"/><path d="m93.32,383.04c-4.05,15.46-13.78,28.83-22.32,37.18-8.86,8.43-16.54,11.84-23.87,9.29-12.98-6.06-34.25-27.8-44.11-41.62-4.21-7.63-1.9-15.04,6.35-24.17,8.09-8.77,22.13-19.26,37.76-24.51,31.92-11.84,55.33,12.19,46.19,43.83Z" fill="#685bfb"/><path d="m93.32,467.04c-4.05,15.46-13.78,28.83-22.32,37.18-8.86,8.43-16.54,11.84-23.87,9.29-12.98-6.06-34.25-27.8-44.11-41.62-4.21-7.63-1.9-15.04,6.35-24.17,8.09-8.77,22.13-19.26,37.76-24.51,31.92-11.84,55.33,12.19,46.19,43.83Z" fill="#d65bfb"/><path d="m93.32,551.04c-4.05,15.46-13.78,28.83-22.32,37.18-8.86,8.43-16.54,11.84-23.87,9.29-12.98-6.06-34.25-27.8-44.11-41.62-4.21-7.63-1.9-15.04,6.35-24.17,8.09-8.77,22.13-19.26,37.76-24.51,31.92-11.84,55.33,12.19,46.19,43.83Z" fill="#685bfb"/><path d="m93.32,635.04c-4.05,15.46-13.78,28.83-22.32,37.18-8.86,8.43-16.54,11.84-23.87,9.29-12.98-6.06-34.25-27.8-44.11-41.62-4.21-7.63-1.9-15.04,6.35-24.17,8.09-8.77,22.13-19.26,37.76-24.51,31.92-11.84,55.33,12.19,46.19,43.83Z" fill="#5b5bfb"/><path d="m177.32,47.04c-4.05,15.46-13.78,28.83-22.32,37.18-8.86,8.43-16.54,11.84-23.87,9.29-12.98-6.06-34.25-27.8-44.11-41.62-4.21-7.63-1.9-15.04,6.35-24.17,8.09-8.77,22.13-19.26,37.76-24.51,31.92-11.84,55.33,12.19,46.19,43.83Z" fill="#c35bfb"/><path d="m177.32,131.04c-4.05,15.46-13.78,28.83-22.32,37.18-8.86,8.43-16.54,11.84-23.87,9.29-12.98-6.06-34.25-27.8-44.11-41.62-4.21-7.63-1.9-15.03,6.35-24.17,8.09-8.77,22.13-19.26,37.76-24.51,31.92-11.84,55.33,12.19,46.19,43.83Z" fill="#e95bfb"/><path d="m177.32,299.04c-4.05,15.46-13.78,28.83-22.32,37.18-8.86,8.43-16.54,11.84-23.87,9.29-12.98-6.06-34.25-27.8-44.11-41.62-4.21-7.63-1.9-15.04,6.35-24.17,8.09-8.77,22.13-19.26,37.76-24.51,31.92-11.84,55.33,12.19,46.19,43.83Z" fill="#a85bfb"/><path d="m177.32,383.04c-4.05,15.46-13.78,28.83-22.32,37.18-8.86,8.43-16.54,11.84-23.87,9.29-12.98-6.06-34.25-27.8-44.11-41.62-4.21-7.63-1.9-15.04,6.35-24.17,8.09-8.77,22.13-19.26,37.76-24.51,31.92-11.84,55.33,12.19,46.19,43.83Z" fill="#705bfb"/><path d="m177.32,467.04c-4.05,15.46-13.78,28.83-22.32,37.18-8.86,8.43-16.54,11.84-23.87,9.29-12.98-6.06-34.25-27.8-44.11-41.62-4.21-7.63-1.9-15.04,6.35-24.17,8.09-8.77,22.13-19.26,37.76-24.51,31.92-11.84,55.33,12.19,46.19,43.83Z" fill="#935bfb"/><path d="m177.32,551.04c-4.05,15.46-13.78,28.83-22.32,37.18-8.86,8.43-16.54,11.84-23.87,9.29-12.98-6.06-34.25-27.8-44.11-41.62-4.21-7.63-1.9-15.04,6.35-24.17,8.09-8.77,22.13-19.26,37.76-24.51,31.92-11.84,55.33,12.19,46.19,43.83Z" fill="#fb5be9"/><path d="m639.32,677.04c-4.05,15.46-13.78,28.83-22.32,37.18-8.86,8.43-16.54,11.84-23.87,9.29-12.98-6.06-34.25-27.8-44.11-41.62-4.21-7.63-1.9-15.04,6.35-24.17,8.09-8.77,22.13-19.26,37.76-24.51,31.92-11.84,55.33,12.19,46.19,43.83Z" fill="#ab5bfb"/><path d="m723.32,89.04c-4.05,15.46-13.78,28.83-22.32,37.18-8.86,8.43-16.54,11.84-23.87,9.29-12.98-6.06-34.25-27.8-44.11-41.62-4.21-7.63-1.9-15.04,6.35-24.17,8.09-8.77,22.13-19.26,37.76-24.51,31.92-11.84,55.33,12.19,46.19,43.83Z" fill="#fb5bab"/><path d="m723.32,173.04c-4.05,15.46-13.78,28.83-22.32,37.18-8.86,8.43-16.54,11.84-23.87,9.29-12.98-6.06-34.25-27.8-44.11-41.62-4.21-7.63-1.9-15.04,6.35-24.17,8.09-8.77,22.13-19.26,37.76-24.51,31.92-11.84,55.33,12.19,46.19,43.83Z" fill="#5d5bfb"/><path d="m723.32,257.04c-4.05,15.46-13.78,28.83-22.32,37.18-8.86,8.43-16.54,11.84-23.87,9.29-12.98-6.06-34.25-27.8-44.11-41.62-4.21-7.63-1.9-15.04,6.35-24.17,8.09-8.77,22.13-19.26,37.76-24.51,31.92-11.84,55.33,12.19,46.19,43.83Z" fill="#d65bfb"/><path d="m723.32,341.04c-4.05,15.46-13.78,28.83-22.32,37.18-8.86,8.43-16.54,11.84-23.87,9.29-12.98-6.06-34.25-27.8-44.11-41.62-4.21-7.63-1.9-15.04,6.35-24.17,8.09-8.77,22.13-19.26,37.76-24.51,31.92-11.84,55.33,12.19,46.19,43.83Z" fill="#fb5be3"/><path d="m174.03,642.85c-5.29,4.78-14.64,10.82-22.35,17.67-8,6.68-14.36,14.16-20.56,17.79-6.19,3.55-12.82,2.64-21.46-5.29-8.28-7.69-18.57-22.39-23.84-40.94-5.4-18.29-3.59-34.86,4.96-40.86,8.37-6.56,23.48-2.56,40.33,7.3,16.86,9.98,31.7,20.89,39.43,28.02,7.98,7.53,8.84,11.27,3.47,16.33Z" fill="#fb5be1"/><path d="m258.03,54.85c-5.29,4.78-14.64,10.82-22.35,17.67-8,6.68-14.36,14.16-20.56,17.79-6.19,3.54-12.82,2.64-21.46-5.29-8.28-7.69-18.57-22.39-23.84-40.94-5.4-18.29-3.59-34.86,4.96-40.86,8.37-6.56,23.48-2.56,40.33,7.29,16.86,9.98,31.7,20.89,39.43,28.02,7.98,7.53,8.84,11.27,3.47,16.33Z" fill="#a35bfb"/><path d="m258.03,138.85c-5.29,4.78-14.64,10.82-22.35,17.67-8,6.68-14.36,14.16-20.56,17.79-6.19,3.55-12.82,2.64-21.46-5.29-8.28-7.69-18.57-22.39-23.84-40.94-5.4-18.29-3.59-34.86,4.96-40.86,8.37-6.56,23.48-2.56,40.33,7.3,16.86,9.98,31.7,20.89,39.43,28.02,7.98,7.53,8.84,11.27,3.47,16.33Z" fill="#fb5be1"/><path d="m258.03,474.85c-5.29,4.78-14.64,10.82-22.35,17.67-8,6.68-14.36,14.16-20.56,17.79-6.19,3.55-12.82,2.64-21.46-5.29-8.28-7.69-18.57-22.39-23.84-40.94-5.4-18.29-3.59-34.86,4.96-40.86,8.37-6.56,23.48-2.56,40.33,7.3,16.86,9.98,31.7,20.89,39.43,28.02,7.98,7.53,8.84,11.27,3.47,16.33Z" fill="#fb5bc8"/><path d="m258.03,558.85c-5.29,4.78-14.64,10.82-22.35,17.67-8,6.68-14.36,14.16-20.56,17.79-6.19,3.55-12.82,2.64-21.46-5.29-8.28-7.69-18.57-22.39-23.84-40.94-5.4-18.29-3.59-34.86,4.96-40.86,8.37-6.56,23.48-2.56,40.33,7.3,16.86,9.98,31.7,20.89,39.43,28.02,7.98,7.53,8.84,11.27,3.47,16.33Z" fill="#c85bfb"/><path d="m258.03,642.85c-5.29,4.78-14.64,10.82-22.35,17.67-8,6.68-14.36,14.16-20.56,17.79-6.19,3.55-12.82,2.64-21.46-5.29-8.28-7.69-18.57-22.39-23.84-40.94-5.4-18.29-3.59-34.86,4.96-40.86,8.37-6.56,23.48-2.56,40.33,7.3,16.86,9.98,31.7,20.89,39.43,28.02,7.98,7.53,8.84,11.27,3.47,16.33Z" fill="#fb5be3"/><path d="m342.03,54.85c-5.29,4.78-14.64,10.82-22.35,17.67-8,6.68-14.36,14.16-20.56,17.79-6.19,3.54-12.82,2.64-21.46-5.29-8.28-7.69-18.57-22.39-23.84-40.94-5.4-18.29-3.59-34.86,4.96-40.86,8.37-6.56,23.48-2.56,40.33,7.29,16.86,9.98,31.7,20.89,39.43,28.02,7.98,7.53,8.84,11.27,3.47,16.33Z" fill="#5bd6fb"/><path d="m342.03,138.85c-5.29,4.78-14.64,10.82-22.35,17.67-8,6.68-14.36,14.16-20.56,17.79-6.19,3.55-12.82,2.64-21.46-5.29-8.28-7.69-18.57-22.39-23.84-40.94-5.4-18.29-3.59-34.86,4.96-40.86,8.37-6.56,23.48-2.56,40.33,7.3,16.86,9.98,31.7,20.89,39.43,28.02,7.98,7.53,8.84,11.27,3.47,16.33Z" fill="#5b83fb"/><path d="m342.03,558.85c-5.29,4.78-14.64,10.82-22.35,17.67-8,6.68-14.36,14.16-20.56,17.79-6.19,3.55-12.82,2.64-21.46-5.29-8.28-7.69-18.57-22.39-23.84-40.94-5.4-18.29-3.59-34.86,4.96-40.86,8.37-6.56,23.48-2.56,40.33,7.3,16.86,9.98,31.7,20.89,39.43,28.02,7.98,7.53,8.84,11.27,3.47,16.33Z" fill="#a05bfb"/><path d="m342.03,642.85c-5.29,4.78-14.64,10.82-22.35,17.67-8,6.68-14.36,14.16-20.56,17.79-6.19,3.55-12.82,2.64-21.46-5.29-8.28-7.69-18.57-22.39-23.84-40.94-5.4-18.29-3.59-34.86,4.96-40.86,8.37-6.56,23.48-2.56,40.33,7.3,16.86,9.98,31.7,20.89,39.43,28.02,7.98,7.53,8.84,11.27,3.47,16.33Z" fill="#765bfb"/><path d="m426.03,54.85c-5.29,4.78-14.64,10.82-22.35,17.67-8,6.68-14.36,14.16-20.56,17.79-6.19,3.54-12.82,2.64-21.46-5.29-8.28-7.69-18.57-22.39-23.84-40.94-5.4-18.29-3.59-34.86,4.96-40.86,8.37-6.56,23.48-2.56,40.33,7.29,16.86,9.98,31.7,20.89,39.43,28.02,7.98,7.53,8.84,11.27,3.47,16.33Z" fill="#5b80fb"/><path d="m426.03,138.85c-5.29,4.78-14.64,10.82-22.35,17.67-8,6.68-14.36,14.16-20.56,17.79-6.19,3.55-12.82,2.64-21.46-5.29-8.28-7.69-18.57-22.39-23.84-40.94-5.4-18.29-3.59-34.86,4.96-40.86,8.37-6.56,23.48-2.56,40.33,7.3,16.86,9.98,31.7,20.89,39.43,28.02,7.98,7.53,8.84,11.27,3.47,16.33Z" fill="#5b5dfb"/><path d="m426.03,222.85c-5.29,4.78-14.64,10.82-22.35,17.67-8,6.68-14.36,14.16-20.56,17.79-6.19,3.55-12.82,2.64-21.46-5.29-8.28-7.69-18.57-22.39-23.84-40.94-5.4-18.29-3.59-34.86,4.96-40.86,8.37-6.56,23.48-2.56,40.33,7.3,16.86,9.98,31.7,20.89,39.43,28.02,7.98,7.53,8.84,11.27,3.47,16.33Z" fill="#fb5bc3"/><path d="m510.03,54.85c-5.29,4.78-14.64,10.82-22.35,17.67-8,6.68-14.36,14.16-20.56,17.79-6.19,3.54-12.82,2.64-21.46-5.29-8.28-7.69-18.57-22.39-23.84-40.94-5.4-18.29-3.59-34.86,4.96-40.86,8.37-6.56,23.48-2.56,40.33,7.29,16.86,9.98,31.7,20.89,39.43,28.02,7.98,7.53,8.84,11.27,3.47,16.33Z" fill="#ae5bfb"/><path d="m510.03,138.85c-5.29,4.78-14.64,10.82-22.35,17.67-8,6.68-14.36,14.16-20.56,17.79-6.19,3.55-12.82,2.64-21.46-5.29-8.28-7.69-18.57-22.39-23.84-40.94-5.4-18.29-3.59-34.86,4.96-40.86,8.37-6.56,23.48-2.56,40.33,7.3,16.86,9.98,31.7,20.89,39.43,28.02,7.98,7.53,8.84,11.27,3.47,16.33Z" fill="#fb5bf1"/><path d="m510.03,222.85c-5.29,4.78-14.64,10.82-22.35,17.67-8,6.68-14.36,14.16-20.56,17.79-6.19,3.55-12.82,2.64-21.46-5.29-8.28-7.69-18.57-22.39-23.84-40.94-5.4-18.29-3.59-34.86,4.96-40.86,8.37-6.56,23.48-2.56,40.33,7.3,16.86,9.98,31.7,20.89,39.43,28.02,7.98,7.53,8.84,11.27,3.47,16.33Z" fill="#fb5bae"/><path d="m594.03,54.85c-5.29,4.78-14.64,10.82-22.35,17.67-8,6.68-14.36,14.16-20.56,17.79-6.19,3.54-12.82,2.64-21.46-5.29-8.28-7.69-18.57-22.39-23.84-40.94-5.4-18.29-3.59-34.86,4.96-40.86,8.37-6.56,23.48-2.56,40.33,7.29,16.86,9.98,31.7,20.89,39.43,28.02,7.98,7.53,8.84,11.27,3.47,16.33Z" fill="#b05bfb"/><path d="m594.03,138.85c-5.29,4.78-14.64,10.82-22.35,17.67-8,6.68-14.36,14.16-20.56,17.79-6.19,3.55-12.82,2.64-21.46-5.29-8.28-7.69-18.57-22.39-23.84-40.94-5.4-18.29-3.59-34.86,4.96-40.86,8.37-6.56,23.48-2.56,40.33,7.3,16.86,9.98,31.7,20.89,39.43,28.02,7.98,7.53,8.84,11.27,3.47,16.33Z" fill="#5bbefb"/><path d="m594.03,222.85c-5.29,4.78-14.64,10.82-22.35,17.67-8,6.68-14.36,14.16-20.56,17.79-6.19,3.55-12.82,2.64-21.46-5.29-8.28-7.69-18.57-22.39-23.84-40.94-5.4-18.29-3.59-34.86,4.96-40.86,8.37-6.56,23.48-2.56,40.33,7.3,16.86,9.98,31.7,20.89,39.43,28.02,7.98,7.53,8.84,11.27,3.47,16.33Z" fill="#fb5bce"/><path d="m594.03,306.85c-5.29,4.78-14.64,10.82-22.35,17.67-8,6.68-14.36,14.16-20.56,17.79-6.19,3.55-12.82,2.64-21.46-5.29-8.28-7.69-18.57-22.39-23.84-40.94-5.4-18.29-3.59-34.86,4.96-40.86,8.37-6.56,23.48-2.56,40.33,7.3,16.86,9.98,31.7,20.89,39.43,28.02,7.98,7.53,8.84,11.27,3.47,16.33Z" fill="#b05bfb"/><path d="m678.03,54.85c-5.29,4.78-14.64,10.82-22.35,17.67-8,6.68-14.36,14.16-20.56,17.79-6.19,3.54-12.82,2.64-21.46-5.29-8.28-7.69-18.57-22.39-23.84-40.94-5.4-18.29-3.59-34.86,4.96-40.86,8.37-6.56,23.48-2.56,40.33,7.29,16.86,9.98,31.7,20.89,39.43,28.02,7.98,7.53,8.84,11.27,3.47,16.33Z" fill="#fb5b6d"/><path d="m678.03,138.85c-5.29,4.78-14.64,10.82-22.35,17.67-8,6.68-14.36,14.16-20.56,17.79-6.19,3.55-12.82,2.64-21.46-5.29-8.28-7.69-18.57-22.39-23.84-40.94-5.4-18.29-3.59-34.86,4.96-40.86,8.37-6.56,23.48-2.56,40.33,7.3,16.86,9.98,31.7,20.89,39.43,28.02,7.98,7.53,8.84,11.27,3.47,16.33Z" fill="#d65bfb"/><path d="m678.03,222.85c-5.29,4.78-14.64,10.82-22.35,17.67-8,6.68-14.36,14.16-20.56,17.79-6.19,3.55-12.82,2.64-21.46-5.29-8.28-7.69-18.57-22.39-23.84-40.94-5.4-18.29-3.59-34.86,4.96-40.86,8.37-6.56,23.48-2.56,40.33,7.3,16.86,9.98,31.7,20.89,39.43,28.02,7.98,7.53,8.84,11.27,3.47,16.33Z" fill="#835bfb"/><path d="m678.03,306.85c-5.29,4.78-14.64,10.82-22.35,17.67-8,6.68-14.36,14.16-20.56,17.79-6.19,3.55-12.82,2.64-21.46-5.29-8.28-7.69-18.57-22.39-23.84-40.94-5.4-18.29-3.59-34.86,4.96-40.86,8.37-6.56,23.48-2.56,40.33,7.3,16.86,9.98,31.7,20.89,39.43,28.02,7.98,7.53,8.84,11.27,3.47,16.33Z" fill="#fb5bee"/><path d="m720.03,432.85c-5.29,4.78-14.64,10.82-22.35,17.67-8,6.68-14.36,14.16-20.56,17.79-6.19,3.55-12.82,2.64-21.46-5.29-8.28-7.69-18.57-22.39-23.84-40.94-5.4-18.29-3.59-34.86,4.96-40.86,8.37-6.56,23.48-2.56,40.33,7.3,16.86,9.98,31.7,20.89,39.43,28.02,7.98,7.53,8.84,11.27,3.47,16.33Z" fill="#d85bfb"/><path d="m720.03,516.85c-5.29,4.78-14.64,10.82-22.35,17.67-8,6.68-14.36,14.16-20.56,17.79-6.19,3.55-12.82,2.64-21.46-5.29-8.28-7.69-18.57-22.39-23.84-40.94-5.4-18.29-3.59-34.86,4.96-40.86,8.37-6.56,23.48-2.56,40.33,7.3,16.86,9.98,31.7,20.89,39.43,28.02,7.98,7.53,8.84,11.27,3.47,16.33Z" fill="#905bfb"/><path d="m720.03,600.85c-5.29,4.78-14.64,10.82-22.35,17.67-8,6.68-14.36,14.16-20.56,17.79-6.19,3.55-12.82,2.64-21.46-5.29-8.28-7.69-18.57-22.39-23.84-40.94-5.4-18.29-3.59-34.86,4.96-40.86,8.37-6.56,23.48-2.56,40.33,7.3,16.86,9.98,31.7,20.89,39.43,28.02,7.98,7.53,8.84,11.27,3.47,16.33Z" fill="#fb5bb0"/><path d="m720.03,684.85c-5.29,4.78-14.64,10.82-22.35,17.67-8,6.68-14.36,14.16-20.56,17.79-6.19,3.55-12.82,2.64-21.46-5.29-8.28-7.69-18.57-22.39-23.84-40.94-5.4-18.29-3.59-34.86,4.96-40.86,8.37-6.56,23.48-2.56,40.33,7.3,16.86,9.98,31.7,20.89,39.43,28.02,7.98,7.53,8.84,11.27,3.47,16.33Z" fill="#ab5bfb"/><path d="m677.13,381.5c6.94,7.62,5.59,7.8-1.46,15.55-7.23,6.62-20.15,20.82-40.54,30.41-20.39,8.46-31.85,5.88-39.24-1.05-6.94-7.3-9.81-18.95-2.76-36.98,8.21-18.41,21.6-28.07,28.26-35.47,7.62-6.98,8.5-11.69,13.74-10.5,5.16,2.44,7.16,10.9,14.71,17.8,6.78,7.33,19.12,13.11,27.29,20.23Z" fill="#fb5bdb"/><path d="m677.13,465.5c6.94,7.62,5.59,7.8-1.46,15.55-7.23,6.62-20.15,20.82-40.54,30.41-20.39,8.46-31.85,5.88-39.24-1.05-6.94-7.3-9.81-18.95-2.76-36.98,8.21-18.41,21.6-28.07,28.26-35.47,7.62-6.98,8.5-11.69,13.74-10.5,5.16,2.44,7.16,10.9,14.71,17.8,6.78,7.33,19.12,13.11,27.29,20.23Z" fill="#7b5bfb"/><path d="m677.13,549.5c6.94,7.62,5.59,7.8-1.46,15.55-7.23,6.62-20.15,20.82-40.54,30.41-20.39,8.46-31.85,5.88-39.24-1.05-6.94-7.3-9.81-18.95-2.76-36.98,8.21-18.41,21.6-28.07,28.26-35.47,7.62-6.98,8.5-11.69,13.74-10.5,5.16,2.44,7.16,10.9,14.71,17.8,6.78,7.33,19.12,13.11,27.29,20.23Z" fill="#fb5be3"/><path d="m677.13,633.5c6.94,7.62,5.59,7.8-1.46,15.55-7.23,6.62-20.15,20.82-40.54,30.41-20.39,8.46-31.85,5.88-39.24-1.05-6.94-7.3-9.81-18.95-2.76-36.98,8.21-18.41,21.6-28.07,28.26-35.47,7.62-6.98,8.5-11.69,13.74-10.5,5.16,2.44,7.16,10.9,14.71,17.8,6.78,7.33,19.12,13.11,27.29,20.23Z" fill="#ab5bfb"/><path d="m131.13,255.5c6.94,7.62,5.59,7.8-1.46,15.55-7.23,6.62-20.15,20.82-40.54,30.41-20.39,8.46-31.85,5.88-39.24-1.05-6.94-7.3-9.81-18.95-2.76-36.98,8.21-18.41,21.6-28.07,28.26-35.47,7.62-6.98,8.5-11.69,13.74-10.5,5.16,2.44,7.16,10.9,14.71,17.8,6.78,7.33,19.12,13.11,27.29,20.23Z" fill="#d85bfb"/><path d="m131.13,339.5c6.94,7.62,5.59,7.8-1.46,15.55-7.23,6.62-20.15,20.82-40.54,30.41-20.39,8.46-31.85,5.88-39.24-1.05-6.94-7.3-9.81-18.95-2.76-36.98,8.21-18.41,21.6-28.07,28.26-35.47,7.62-6.98,8.5-11.69,13.74-10.5,5.16,2.44,7.16,10.9,14.71,17.8,6.78,7.33,19.12,13.11,27.29,20.23Z" fill="#8e5bfb"/><path d="m131.13,423.5c6.94,7.62,5.59,7.8-1.46,15.55-7.23,6.62-20.15,20.82-40.54,30.41-20.39,8.46-31.85,5.88-39.24-1.05-6.94-7.3-9.81-18.95-2.76-36.98,8.21-18.41,21.6-28.07,28.26-35.47,7.62-6.98,8.5-11.69,13.74-10.5,5.16,2.44,7.16,10.9,14.71,17.8,6.78,7.33,19.12,13.11,27.29,20.23Z" fill="#765bfb"/><path d="m131.13,507.5c6.94,7.62,5.59,7.8-1.46,15.55-7.23,6.62-20.15,20.82-40.54,30.41-20.39,8.46-31.85,5.88-39.24-1.05-6.94-7.3-9.81-18.95-2.76-36.98,8.21-18.41,21.6-28.07,28.26-35.47,7.62-6.98,8.5-11.69,13.74-10.5,5.16,2.44,7.16,10.9,14.71,17.8,6.78,7.33,19.12,13.11,27.29,20.23Z" fill="#de5bfb"/><path d="m131.13,591.5c6.94,7.62,5.59,7.8-1.46,15.55-7.23,6.62-20.15,20.82-40.54,30.41-20.39,8.46-31.85,5.88-39.24-1.05-6.94-7.3-9.81-18.95-2.76-36.98,8.21-18.41,21.6-28.07,28.26-35.47,7.62-6.98,8.5-11.69,13.74-10.5,5.16,2.44,7.16,10.9,14.71,17.8,6.78,7.33,19.12,13.11,27.29,20.23Z" fill="#fb5bce"/><path d="m131.13,675.5c6.94,7.62,5.59,7.8-1.46,15.55-7.23,6.62-20.15,20.82-40.54,30.41-20.39,8.46-31.85,5.88-39.24-1.05-6.94-7.3-9.81-18.95-2.76-36.98,8.21-18.41,21.6-28.07,28.26-35.47,7.62-6.98,8.5-11.69,13.74-10.5,5.16,2.44,7.16,10.9,14.71,17.8,6.78,7.33,19.12,13.11,27.29,20.23Z" fill="#fb5be1"/><path d="m215.13,87.5c6.94,7.62,5.59,7.8-1.46,15.55-7.23,6.62-20.15,20.82-40.54,30.41-20.39,8.46-31.85,5.88-39.24-1.05-6.94-7.3-9.81-18.95-2.76-36.98,8.21-18.41,21.6-28.07,28.26-35.47,7.62-6.98,8.5-11.69,13.74-10.5,5.16,2.44,7.16,10.9,14.71,17.8,6.78,7.33,19.12,13.11,27.29,20.23Z" fill="#c05bfb"/><path d="m215.13,423.5c6.94,7.62,5.59,7.8-1.46,15.55-7.23,6.62-20.15,20.82-40.54,30.41-20.39,8.46-31.85,5.88-39.24-1.05-6.94-7.3-9.81-18.95-2.76-36.98,8.21-18.41,21.6-28.07,28.26-35.47,7.62-6.98,8.5-11.69,13.74-10.5,5.16,2.44,7.16,10.9,14.71,17.8,6.78,7.33,19.12,13.11,27.29,20.23Z" fill="#fb5bb6"/><path d="m215.13,507.5c6.94,7.62,5.59,7.8-1.46,15.55-7.23,6.62-20.15,20.82-40.54,30.41-20.39,8.46-31.85,5.88-39.24-1.05-6.94-7.3-9.81-18.95-2.76-36.98,8.21-18.41,21.6-28.07,28.26-35.47,7.62-6.98,8.5-11.69,13.74-10.5,5.16,2.44,7.16,10.9,14.71,17.8,6.78,7.33,19.12,13.11,27.29,20.23Z" fill="#f35bfb"/><path d="m215.13,591.5c6.94,7.62,5.59,7.8-1.46,15.55-7.23,6.62-20.15,20.82-40.54,30.41-20.39,8.46-31.85,5.88-39.24-1.05-6.94-7.3-9.81-18.95-2.76-36.98,8.21-18.41,21.6-28.07,28.26-35.47,7.62-6.98,8.5-11.69,13.74-10.5,5.16,2.44,7.16,10.9,14.71,17.8,6.78,7.33,19.12,13.11,27.29,20.23Z" fill="#b05bfb"/><path d="m215.13,675.5c6.94,7.62,5.59,7.8-1.46,15.55-7.23,6.62-20.15,20.82-40.54,30.41-20.39,8.46-31.85,5.88-39.24-1.05-6.94-7.3-9.81-18.95-2.76-36.98,8.21-18.41,21.6-28.07,28.26-35.47,7.62-6.98,8.5-11.69,13.74-10.5,5.16,2.44,7.16,10.9,14.71,17.8,6.78,7.33,19.12,13.11,27.29,20.23Z" fill="#fb5be3"/><path d="m299.13,87.5c6.94,7.62,5.59,7.8-1.46,15.55-7.23,6.62-20.15,20.82-40.54,30.41-20.39,8.46-31.85,5.88-39.24-1.05-6.94-7.3-9.81-18.95-2.76-36.98,8.21-18.41,21.6-28.07,28.26-35.47,7.62-6.98,8.5-11.69,13.74-10.5,5.16,2.44,7.16,10.9,14.71,17.8,6.78,7.33,19.12,13.11,27.29,20.23Z" fill="#5bbbfb"/><path d="m299.13,171.5c6.94,7.62,5.59,7.8-1.46,15.55-7.23,6.62-20.15,20.82-40.54,30.41-20.39,8.46-31.85,5.88-39.24-1.05-6.94-7.3-9.81-18.95-2.76-36.98,8.21-18.41,21.6-28.07,28.26-35.47,7.62-6.98,8.5-11.69,13.74-10.5,5.16,2.44,7.16,10.9,14.71,17.8,6.78,7.33,19.12,13.11,27.29,20.23Z" fill="#5b65fb"/><path d="m299.13,507.5c6.94,7.62,5.59,7.8-1.46,15.55-7.23,6.62-20.15,20.82-40.54,30.41-20.39,8.46-31.85,5.88-39.24-1.05-6.94-7.3-9.81-18.95-2.76-36.98,8.21-18.41,21.6-28.07,28.26-35.47,7.62-6.98,8.5-11.69,13.74-10.5,5.16,2.44,7.16,10.9,14.71,17.8,6.78,7.33,19.12,13.11,27.29,20.23Z" fill="#fb5bdb"/><path d="m299.13,591.5c6.94,7.62,5.59,7.8-1.46,15.55-7.23,6.62-20.15,20.82-40.54,30.41-20.39,8.46-31.85,5.88-39.24-1.05-6.94-7.3-9.81-18.95-2.76-36.98,8.21-18.41,21.6-28.07,28.26-35.47,7.62-6.98,8.5-11.69,13.74-10.5,5.16,2.44,7.16,10.9,14.71,17.8,6.78,7.33,19.12,13.11,27.29,20.23Z" fill="#5b7bfb"/><path d="m299.13,675.5c6.94,7.62,5.59,7.8-1.46,15.55-7.23,6.62-20.15,20.82-40.54,30.41-20.39,8.46-31.85,5.88-39.24-1.05-6.94-7.3-9.81-18.95-2.76-36.98,8.21-18.41,21.6-28.07,28.26-35.47,7.62-6.98,8.5-11.69,13.74-10.5,5.16,2.44,7.16,10.9,14.71,17.8,6.78,7.33,19.12,13.11,27.29,20.23Z" fill="#765bfb"/><path d="m383.13,87.5c6.94,7.62,5.59,7.8-1.46,15.55-7.23,6.62-20.15,20.82-40.54,30.41-20.39,8.46-31.85,5.88-39.24-1.05-6.94-7.3-9.81-18.95-2.76-36.98,8.21-18.41,21.6-28.07,28.26-35.47,7.62-6.98,8.5-11.69,13.74-10.5,5.16,2.44,7.16,10.9,14.71,17.8,6.78,7.33,19.12,13.11,27.29,20.23Z" fill="#5b9bfb"/><path d="m383.13,171.5c6.94,7.62,5.59,7.8-1.46,15.55-7.23,6.62-20.15,20.82-40.54,30.41-20.39,8.46-31.85,5.88-39.24-1.05-6.94-7.3-9.81-18.95-2.76-36.98,8.21-18.41,21.6-28.07,28.26-35.47,7.62-6.98,8.5-11.69,13.74-10.5,5.16,2.44,7.16,10.9,14.71,17.8,6.78,7.33,19.12,13.11,27.29,20.23Z" fill="#fb5be3"/><path d="m383.13,675.5c6.94,7.62,5.59,7.8-1.46,15.55-7.23,6.62-20.15,20.82-40.54,30.41-20.39,8.46-31.85,5.88-39.24-1.05-6.94-7.3-9.81-18.95-2.76-36.98,8.21-18.41,21.6-28.07,28.26-35.47,7.62-6.98,8.5-11.69,13.74-10.5,5.16,2.44,7.16,10.9,14.71,17.8,6.78,7.33,19.12,13.11,27.29,20.23Z" fill="#fb5be3"/><path d="m467.13,87.5c6.94,7.62,5.59,7.8-1.46,15.55-7.23,6.62-20.15,20.82-40.54,30.41-20.39,8.46-31.85,5.88-39.24-1.05-6.94-7.3-9.81-18.95-2.76-36.98,8.21-18.41,21.6-28.07,28.26-35.47,7.62-6.98,8.5-11.69,13.74-10.5,5.16,2.44,7.16,10.9,14.71,17.8,6.78,7.33,19.12,13.11,27.29,20.23Z" fill="#b65bfb"/><path d="m467.13,171.5c6.94,7.62,5.59,7.8-1.46,15.55-7.23,6.62-20.15,20.82-40.54,30.41-20.39,8.46-31.85,5.88-39.24-1.05-6.94-7.3-9.81-18.95-2.76-36.98,8.21-18.41,21.6-28.07,28.26-35.47,7.62-6.98,8.5-11.69,13.74-10.5,5.16,2.44,7.16,10.9,14.71,17.8,6.78,7.33,19.12,13.11,27.29,20.23Z" fill="#fb5b80"/><path d="m551.13,87.5c6.94,7.62,5.59,7.8-1.46,15.55-7.23,6.62-20.15,20.82-40.54,30.41-20.39,8.46-31.85,5.88-39.24-1.05-6.94-7.3-9.81-18.95-2.76-36.98,8.21-18.41,21.6-28.07,28.26-35.47,7.62-6.98,8.5-11.69,13.74-10.5,5.16,2.44,7.16,10.9,14.71,17.8,6.78,7.33,19.12,13.11,27.29,20.23Z" fill="#5b76fb"/><path d="m551.13,171.5c6.94,7.62,5.59,7.8-1.46,15.55-7.23,6.62-20.15,20.82-40.54,30.41-20.39,8.46-31.85,5.88-39.24-1.05-6.94-7.3-9.81-18.95-2.76-36.98,8.21-18.41,21.6-28.07,28.26-35.47,7.62-6.98,8.5-11.69,13.74-10.5,5.16,2.44,7.16,10.9,14.71,17.8,6.78,7.33,19.12,13.11,27.29,20.23Z" fill="#7b5bfb"/><path d="m551.13,255.5c6.94,7.62,5.59,7.8-1.46,15.55-7.23,6.62-20.15,20.82-40.54,30.41-20.39,8.46-31.85,5.88-39.24-1.05-6.94-7.3-9.81-18.95-2.76-36.98,8.21-18.41,21.6-28.07,28.26-35.47,7.62-6.98,8.5-11.69,13.74-10.5,5.16,2.44,7.16,10.9,14.71,17.8,6.78,7.33,19.12,13.11,27.29,20.23Z" fill="#fb5ba3"/><path d="m635.13,87.5c6.94,7.62,5.59,7.8-1.46,15.55-7.23,6.62-20.15,20.82-40.54,30.41-20.39,8.46-31.85,5.88-39.24-1.05-6.94-7.3-9.81-18.95-2.76-36.98,8.21-18.41,21.6-28.07,28.26-35.47,7.61-6.98,8.5-11.69,13.74-10.5,5.16,2.44,7.16,10.9,14.71,17.8,6.78,7.33,19.12,13.11,27.29,20.23Z" fill="#fb5bab"/><path d="m635.13,171.5c6.94,7.62,5.59,7.8-1.46,15.55-7.23,6.62-20.15,20.82-40.54,30.41-20.39,8.46-31.85,5.88-39.24-1.05-6.94-7.3-9.81-18.95-2.76-36.98,8.21-18.41,21.6-28.07,28.26-35.47,7.62-6.98,8.5-11.69,13.74-10.5,5.16,2.44,7.16,10.9,14.71,17.8,6.78,7.33,19.12,13.11,27.29,20.23Z" fill="#5d5bfb"/><path d="m635.13,255.5c6.94,7.62,5.59,7.8-1.46,15.55-7.23,6.62-20.15,20.82-40.54,30.41-20.39,8.46-31.85,5.88-39.24-1.05-6.94-7.3-9.81-18.95-2.76-36.98,8.21-18.41,21.6-28.07,28.26-35.47,7.62-6.98,8.5-11.69,13.74-10.5,5.16,2.44,7.16,10.9,14.71,17.8,6.78,7.33,19.12,13.11,27.29,20.23Z" fill="#d65bfb"/><path d="m635.13,339.5c6.94,7.62,5.59,7.8-1.46,15.55-7.23,6.62-20.15,20.82-40.54,30.41-20.39,8.46-31.85,5.88-39.24-1.05-6.94-7.3-9.81-18.95-2.76-36.98,8.21-18.41,21.6-28.07,28.26-35.47,7.62-6.98,8.5-11.69,13.74-10.5,5.16,2.44,7.16,10.9,14.71,17.8,6.78,7.33,19.12,13.11,27.29,20.23Z" fill="#fb5be3"/><path d="m635.13,423.5c6.94,7.62,5.59,7.8-1.46,15.55-7.23,6.62-20.15,20.82-40.54,30.41-20.39,8.46-31.85,5.88-39.24-1.05-6.94-7.3-9.81-18.95-2.76-36.98,8.21-18.41,21.6-28.07,28.26-35.47,7.62-6.98,8.5-11.69,13.74-10.5,5.16,2.44,7.16,10.9,14.71,17.8,6.78,7.33,19.12,13.11,27.29,20.23Z" fill="#d85bfb"/><g isolation="isolate"><path d="m88.13,131.34c-4.34,15.13-10.73,30.61-18.77,38.32-7.84,8.23-17.35,8.7-23.23,5.8-12.33-2.6-33.8-25.98-42-39.88-5.27-6.45-6.37-15.34,1.91-23.25,7.61-8.04,24.6-15.09,40.09-20.87,15.48-6.66,33.34-9.4,40.86-1.04,8.34,7.45,6.36,26.01,1.14,40.91Z" fill="#5b8efb"/><path d="m172.13,215.34c-4.34,15.13-10.73,30.61-18.77,38.32-7.84,8.23-17.35,8.7-23.23,5.8-12.33-2.6-33.8-25.98-42-39.88-5.27-6.45-6.37-15.34,1.91-23.25,7.61-8.04,24.6-15.09,40.09-20.87,15.48-6.66,33.34-9.4,40.86-1.04,8.34,7.45,6.36,26.01,1.14,40.91Z" fill="#fb5bd8"/><path d="m256.13,215.34c-4.34,15.13-10.73,30.61-18.77,38.32-7.84,8.23-17.34,8.7-23.23,5.8-12.33-2.6-33.8-25.98-42-39.88-5.27-6.45-6.37-15.34,1.91-23.25,7.61-8.04,24.6-15.09,40.09-20.87,15.48-6.66,33.34-9.4,40.86-1.04,8.34,7.45,6.36,26.01,1.14,40.91Z" fill="#5b63fb"/><path d="m256.13,299.34c-4.34,15.13-10.73,30.61-18.77,38.32-7.84,8.23-17.34,8.7-23.23,5.8-12.33-2.6-33.8-25.98-42-39.88-5.27-6.45-6.37-15.34,1.91-23.25,7.61-8.04,24.6-15.09,40.09-20.87,15.48-6.66,33.34-9.4,40.86-1.04,8.34,7.45,6.36,26.01,1.14,40.91Z" fill="#705bfb"/><path d="m256.13,383.34c-4.34,15.13-10.73,30.61-18.77,38.32-7.84,8.23-17.34,8.7-23.23,5.8-12.33-2.6-33.8-25.98-42-39.88-5.27-6.45-6.37-15.34,1.91-23.25,7.61-8.04,24.6-15.09,40.09-20.87,15.48-6.66,33.34-9.4,40.86-1.04,8.34,7.45,6.36,26.01,1.14,40.91Z" fill="#fb5bb6"/><path d="m340.13,215.34c-4.34,15.13-10.73,30.61-18.77,38.32-7.84,8.23-17.34,8.7-23.23,5.8-12.33-2.6-33.8-25.98-42-39.88-5.27-6.45-6.37-15.34,1.91-23.25,7.61-8.04,24.6-15.09,40.09-20.87,15.48-6.66,33.34-9.4,40.86-1.04,8.34,7.45,6.36,26.01,1.14,40.91Z" fill="#5b6bfb"/><path d="m340.13,299.34c-4.34,15.13-10.73,30.61-18.77,38.32-7.84,8.23-17.34,8.7-23.23,5.8-12.33-2.6-33.8-25.98-42-39.88-5.27-6.45-6.37-15.34,1.91-23.25,7.61-8.04,24.6-15.09,40.09-20.87,15.48-6.66,33.34-9.4,40.86-1.04,8.34,7.45,6.36,26.01,1.14,40.91Z" fill="#5bcefb"/><path d="m340.13,383.34c-4.34,15.13-10.73,30.61-18.77,38.32-7.84,8.23-17.34,8.7-23.23,5.8-12.33-2.6-33.8-25.98-42-39.88-5.27-6.45-6.37-15.34,1.91-23.25,7.61-8.04,24.6-15.09,40.09-20.87,15.48-6.66,33.34-9.4,40.86-1.04,8.34,7.45,6.36,26.01,1.14,40.91Z" fill="#cb5bfb"/><path d="m340.13,467.34c-4.34,15.13-10.73,30.61-18.77,38.32-7.84,8.23-17.34,8.7-23.23,5.8-12.33-2.6-33.8-25.98-42-39.88-5.27-6.45-6.37-15.34,1.91-23.25,7.61-8.04,24.6-15.09,40.09-20.87,15.48-6.66,33.34-9.4,40.86-1.04,8.34,7.45,6.36,26.01,1.14,40.91Z" fill="#fb5bae"/><path d="m424.13,299.34c-4.34,15.13-10.73,30.61-18.77,38.32-7.84,8.23-17.35,8.7-23.23,5.8-12.33-2.6-33.8-25.98-42-39.88-5.27-6.45-6.37-15.34,1.91-23.25,7.61-8.04,24.6-15.09,40.09-20.87,15.48-6.66,33.34-9.4,40.86-1.04,8.34,7.45,6.36,26.01,1.14,40.91Z" fill="#c65bfb"/><path d="m424.13,383.34c-4.34,15.13-10.73,30.61-18.77,38.32-7.84,8.23-17.35,8.7-23.23,5.8-12.33-2.6-33.8-25.98-42-39.88-5.27-6.45-6.37-15.34,1.91-23.25,7.61-8.04,24.6-15.09,40.09-20.87,15.48-6.66,33.34-9.4,40.86-1.04,8.34,7.45,6.36,26.01,1.14,40.91Z" fill="#fb5b7b"/><path d="m424.13,467.34c-4.34,15.13-10.73,30.61-18.77,38.32-7.84,8.23-17.35,8.7-23.23,5.8-12.33-2.6-33.8-25.98-42-39.88-5.27-6.45-6.37-15.34,1.91-23.25,7.61-8.04,24.6-15.09,40.09-20.87,15.48-6.66,33.34-9.4,40.86-1.04,8.34,7.45,6.36,26.01,1.14,40.91Z" fill="#de5bfb"/><path d="m424.13,551.34c-4.34,15.13-10.73,30.61-18.77,38.32-7.84,8.23-17.35,8.7-23.23,5.8-12.33-2.6-33.8-25.98-42-39.88-5.27-6.45-6.37-15.34,1.91-23.25,7.61-8.04,24.6-15.09,40.09-20.87,15.48-6.66,33.34-9.4,40.86-1.04,8.34,7.45,6.36,26.01,1.14,40.91Z" fill="#d35bfb"/><path d="m424.13,635.34c-4.34,15.13-10.73,30.61-18.77,38.32-7.84,8.23-17.35,8.7-23.23,5.8-12.33-2.6-33.8-25.98-42-39.88-5.27-6.45-6.37-15.34,1.91-23.25,7.61-8.04,24.6-15.09,40.09-20.87,15.48-6.66,33.34-9.4,40.86-1.04,8.34,7.45,6.36,26.01,1.14,40.91Z" fill="#fb5be3"/><path d="m508.13,299.34c-4.34,15.13-10.73,30.61-18.77,38.32-7.84,8.23-17.35,8.7-23.23,5.8-12.33-2.6-33.8-25.98-42-39.88-5.27-6.45-6.37-15.34,1.91-23.25,7.61-8.04,24.6-15.09,40.09-20.87,15.48-6.66,33.34-9.4,40.86-1.04,8.34,7.45,6.36,26.01,1.14,40.91Z" fill="#5b70fb"/><path d="m508.13,383.34c-4.34,15.13-10.73,30.61-18.77,38.32-7.84,8.23-17.35,8.7-23.23,5.8-12.33-2.6-33.8-25.98-42-39.88-5.27-6.45-6.37-15.34,1.91-23.25,7.61-8.04,24.6-15.09,40.09-20.87,15.48-6.66,33.34-9.4,40.86-1.04,8.34,7.45,6.36,26.01,1.14,40.91Z" fill="#735bfb"/><path d="m508.13,467.34c-4.34,15.13-10.73,30.61-18.77,38.32-7.84,8.23-17.35,8.7-23.23,5.8-12.33-2.6-33.8-25.98-42-39.88-5.27-6.45-6.37-15.34,1.91-23.25,7.61-8.04,24.6-15.09,40.09-20.87,15.48-6.66,33.34-9.4,40.86-1.04,8.34,7.45,6.36,26.01,1.14,40.91Z" fill="#655bfb"/><path d="m508.13,551.34c-4.34,15.13-10.73,30.61-18.77,38.32-7.84,8.23-17.35,8.7-23.23,5.8-12.33-2.6-33.8-25.98-42-39.88-5.27-6.45-6.37-15.34,1.91-23.25,7.61-8.04,24.6-15.09,40.09-20.87,15.48-6.66,33.34-9.4,40.86-1.04,8.34,7.45,6.36,26.01,1.14,40.91Z" fill="#fb5bbb"/><path d="m508.13,635.34c-4.34,15.13-10.73,30.61-18.77,38.32-7.84,8.23-17.35,8.7-23.23,5.8-12.33-2.6-33.8-25.98-42-39.88-5.27-6.45-6.37-15.34,1.91-23.25,7.61-8.04,24.6-15.09,40.09-20.87,15.48-6.66,33.34-9.4,40.86-1.04,8.34,7.45,6.36,26.01,1.14,40.91Z" fill="#7e5bfb"/><path d="m592.13,383.34c-4.34,15.13-10.73,30.61-18.77,38.32-7.84,8.23-17.34,8.7-23.23,5.8-12.33-2.6-33.8-25.98-42-39.88-5.27-6.45-6.37-15.34,1.91-23.25,7.61-8.04,24.6-15.09,40.09-20.87,15.48-6.66,33.34-9.4,40.86-1.04,8.34,7.45,6.36,26.01,1.14,40.91Z" fill="#5b70fb"/><path d="m592.13,467.34c-4.34,15.13-10.73,30.61-18.77,38.32-7.84,8.23-17.34,8.7-23.23,5.8-12.33-2.6-33.8-25.98-42-39.88-5.27-6.45-6.37-15.34,1.91-23.25,7.61-8.04,24.6-15.09,40.09-20.87,15.48-6.66,33.34-9.4,40.86-1.04,8.34,7.45,6.36,26.01,1.14,40.91Z" fill="#805bfb"/><path d="m592.13,551.34c-4.34,15.13-10.73,30.61-18.77,38.32-7.84,8.23-17.34,8.7-23.23,5.8-12.33-2.6-33.8-25.98-42-39.88-5.27-6.45-6.37-15.34,1.91-23.25,7.61-8.04,24.6-15.09,40.09-20.87,15.48-6.66,33.34-9.4,40.86-1.04,8.34,7.45,6.36,26.01,1.14,40.91Z" fill="#fb5bcb"/><path d="m592.13,635.34c-4.34,15.13-10.73,30.61-18.77,38.32-7.84,8.23-17.34,8.7-23.23,5.8-12.33-2.6-33.8-25.98-42-39.88-5.27-6.45-6.37-15.34,1.91-23.25,7.61-8.04,24.6-15.09,40.09-20.87,15.48-6.66,33.34-9.4,40.86-1.04,8.34,7.45,6.36,26.01,1.14,40.91Z" fill="#985bfb"/><path d="m130.13,89.34c-4.34,15.13-10.73,30.61-18.77,38.32-7.84,8.23-17.35,8.7-23.23,5.8-12.33-2.6-33.8-25.98-42-39.88-5.27-6.45-6.37-15.34,1.91-23.25,7.61-8.04,24.6-15.09,40.09-20.87,15.48-6.66,33.34-9.4,40.86-1.04,8.34,7.45,6.36,26.01,1.14,40.91Z" fill="#a05bfb"/><path d="m130.13,173.34c-4.34,15.13-10.73,30.61-18.77,38.32-7.84,8.23-17.35,8.7-23.23,5.8-12.33-2.6-33.8-25.98-42-39.88-5.27-6.45-6.37-15.34,1.91-23.25,7.61-8.04,24.6-15.09,40.09-20.87,15.48-6.66,33.34-9.4,40.86-1.04,8.34,7.45,6.36,26.01,1.14,40.91Z" fill="#fb5ba6"/><path d="m214.13,173.34c-4.34,15.13-10.73,30.61-18.77,38.32-7.84,8.23-17.35,8.7-23.23,5.8-12.33-2.6-33.8-25.98-42-39.88-5.27-6.45-6.37-15.34,1.91-23.25,7.61-8.04,24.6-15.09,40.09-20.87,15.48-6.66,33.34-9.4,40.86-1.04,8.34,7.45,6.36,26.01,1.14,40.91Z" fill="#d35bfb"/><path d="m214.13,257.34c-4.34,15.13-10.73,30.61-18.77,38.32-7.84,8.23-17.35,8.7-23.23,5.8-12.33-2.6-33.8-25.98-42-39.88-5.27-6.45-6.37-15.34,1.91-23.25,7.61-8.04,24.6-15.09,40.09-20.87,15.48-6.66,33.34-9.4,40.86-1.04,8.34,7.45,6.36,26.01,1.14,40.91Z" fill="#5ba8fb"/><path d="m214.13,341.34c-4.34,15.13-10.73,30.61-18.77,38.32-7.84,8.23-17.35,8.7-23.23,5.8-12.33-2.6-33.8-25.98-42-39.88-5.27-6.45-6.37-15.34,1.91-23.25,7.61-8.04,24.6-15.09,40.09-20.87,15.48-6.66,33.34-9.4,40.86-1.04,8.34,7.45,6.36,26.01,1.14,40.91Z" fill="#e95bfb"/><path d="m298.13,257.34c-4.34,15.13-10.73,30.61-18.77,38.32-7.84,8.23-17.35,8.7-23.23,5.8-12.33-2.6-33.8-25.98-42-39.88-5.27-6.45-6.37-15.34,1.91-23.25,7.61-8.04,24.6-15.09,40.09-20.87,15.48-6.66,33.34-9.4,40.86-1.04,8.34,7.45,6.36,26.01,1.14,40.91Z" fill="#5ba0fb"/><path d="m298.13,341.34c-4.34,15.13-10.73,30.61-18.77,38.32-7.84,8.23-17.35,8.7-23.23,5.8-12.33-2.6-33.8-25.98-42-39.88-5.27-6.45-6.37-15.34,1.91-23.25,7.61-8.04,24.6-15.09,40.09-20.87,15.48-6.66,33.34-9.4,40.86-1.04,8.34,7.45,6.36,26.01,1.14,40.91Z" fill="#5b8efb"/><path d="m298.13,425.34c-4.34,15.13-10.73,30.61-18.77,38.32-7.84,8.23-17.35,8.7-23.23,5.8-12.33-2.6-33.8-25.98-42-39.88-5.27-6.45-6.37-15.34,1.91-23.25,7.61-8.04,24.6-15.09,40.09-20.87,15.48-6.66,33.34-9.4,40.86-1.04,8.34,7.45,6.36,26.01,1.14,40.91Z" fill="#fb5bde"/><path d="m382.13,257.34c-4.34,15.13-10.73,30.61-18.77,38.32-7.84,8.23-17.35,8.7-23.23,5.8-12.33-2.6-33.8-25.98-42-39.88-5.27-6.45-6.37-15.34,1.91-23.25,7.61-8.04,24.6-15.09,40.09-20.87,15.48-6.66,33.34-9.4,40.86-1.04,8.34,7.45,6.36,26.01,1.14,40.91Z" fill="#e35bfb"/><path d="m382.13,341.34c-4.34,15.13-10.73,30.61-18.77,38.32-7.84,8.23-17.35,8.7-23.23,5.8-12.33-2.6-33.8-25.98-42-39.88-5.27-6.45-6.37-15.34,1.91-23.25,7.61-8.04,24.6-15.09,40.09-20.87,15.48-6.66,33.34-9.4,40.86-1.04,8.34,7.45,6.36,26.01,1.14,40.91Z" fill="#fb5bc8"/><path d="m382.13,425.34c-4.34,15.13-10.73,30.61-18.77,38.32-7.84,8.23-17.35,8.7-23.23,5.8-12.33-2.6-33.8-25.98-42-39.88-5.27-6.45-6.37-15.34,1.91-23.25,7.61-8.04,24.6-15.09,40.09-20.87,15.48-6.66,33.34-9.4,40.86-1.04,8.34,7.45,6.36,26.01,1.14,40.91Z" fill="#fb5bcb"/><path d="m382.13,509.34c-4.34,15.13-10.73,30.61-18.77,38.32-7.84,8.23-17.35,8.7-23.23,5.8-12.33-2.6-33.8-25.98-42-39.88-5.27-6.45-6.37-15.34,1.91-23.25,7.61-8.04,24.6-15.09,40.09-20.87,15.48-6.66,33.34-9.4,40.86-1.04,8.34,7.45,6.36,26.01,1.14,40.91Z" fill="#e65bfb"/><path d="m382.13,593.34c-4.34,15.13-10.73,30.61-18.77,38.32-7.84,8.23-17.35,8.7-23.23,5.8-12.33-2.6-33.8-25.98-42-39.88-5.27-6.45-6.37-15.34,1.91-23.25,7.61-8.04,24.6-15.09,40.09-20.87,15.48-6.66,33.34-9.4,40.86-1.04,8.34,7.45,6.36,26.01,1.14,40.91Z" fill="#c35bfb"/><path d="m466.13,257.34c-4.34,15.13-10.73,30.61-18.77,38.32-7.84,8.23-17.35,8.7-23.23,5.8-12.33-2.6-33.8-25.98-42-39.88-5.27-6.45-6.37-15.34,1.91-23.25,7.61-8.04,24.6-15.09,40.09-20.87,15.48-6.66,33.34-9.4,40.86-1.04,8.34,7.45,6.36,26.01,1.14,40.91Z" fill="#c65bfb"/><path d="m466.13,341.34c-4.34,15.13-10.73,30.61-18.77,38.32-7.84,8.23-17.35,8.7-23.23,5.8-12.33-2.6-33.8-25.98-42-39.88-5.27-6.45-6.37-15.34,1.91-23.25,7.61-8.04,24.6-15.09,40.09-20.87,15.48-6.66,33.34-9.4,40.86-1.04,8.34,7.45,6.36,26.01,1.14,40.91Z" fill="#5d5bfb"/><path d="m466.13,425.34c-4.34,15.13-10.73,30.61-18.77,38.32-7.84,8.23-17.35,8.7-23.23,5.8-12.33-2.6-33.8-25.98-42-39.88-5.27-6.45-6.37-15.34,1.91-23.25,7.61-8.04,24.6-15.09,40.09-20.87,15.48-6.66,33.34-9.4,40.86-1.04,8.34,7.45,6.36,26.01,1.14,40.91Z" fill="#5b6dfb"/><path d="m466.13,509.34c-4.34,15.13-10.73,30.61-18.77,38.32-7.84,8.23-17.35,8.7-23.23,5.8-12.33-2.6-33.8-25.98-42-39.88-5.27-6.45-6.37-15.34,1.91-23.25,7.61-8.04,24.6-15.09,40.09-20.87,15.48-6.66,33.34-9.4,40.86-1.04,8.34,7.45,6.36,26.01,1.14,40.91Z" fill="#fb5be9"/><path d="m466.13,593.34c-4.34,15.13-10.73,30.61-18.77,38.32-7.84,8.23-17.35,8.7-23.23,5.8-12.33-2.6-33.8-25.98-42-39.88-5.27-6.45-6.37-15.34,1.91-23.25,7.61-8.04,24.6-15.09,40.09-20.87,15.48-6.66,33.34-9.4,40.86-1.04,8.34,7.45,6.36,26.01,1.14,40.91Z" fill="#fb5bfb"/><path d="m466.13,677.34c-4.34,15.13-10.73,30.61-18.77,38.32-7.84,8.23-17.35,8.7-23.23,5.8-12.33-2.6-33.8-25.98-42-39.88-5.27-6.45-6.37-15.34,1.91-23.25,7.61-8.04,24.6-15.09,40.09-20.87,15.48-6.66,33.34-9.4,40.86-1.04,8.34,7.45,6.36,26.01,1.14,40.91Z" fill="#7e5bfb"/><path d="m550.13,341.34c-4.34,15.13-10.73,30.61-18.77,38.32-7.84,8.23-17.35,8.7-23.23,5.8-12.33-2.6-33.8-25.98-42-39.88-5.27-6.45-6.37-15.34,1.91-23.25,7.61-8.04,24.6-15.09,40.09-20.87,15.48-6.66,33.34-9.4,40.86-1.04,8.34,7.45,6.36,26.01,1.14,40.91Z" fill="#5b6bfb"/><path d="m550.13,425.34c-4.34,15.13-10.73,30.61-18.77,38.32-7.84,8.23-17.35,8.7-23.23,5.8-12.33-2.6-33.8-25.98-42-39.88-5.27-6.45-6.37-15.34,1.91-23.25,7.61-8.04,24.6-15.09,40.09-20.87,15.48-6.66,33.34-9.4,40.86-1.04,8.34,7.45,6.36,26.01,1.14,40.91Z" fill="#5d5bfb"/><path d="m550.13,509.34c-4.34,15.13-10.73,30.61-18.77,38.32-7.84,8.23-17.35,8.7-23.23,5.8-12.33-2.6-33.8-25.98-42-39.88-5.27-6.45-6.37-15.34,1.91-23.25,7.61-8.04,24.6-15.09,40.09-20.87,15.48-6.66,33.34-9.4,40.86-1.04,8.34,7.45,6.36,26.01,1.14,40.91Z" fill="#f95bfb"/><path d="m550.13,593.34c-4.34,15.13-10.73,30.61-18.77,38.32-7.84,8.23-17.35,8.7-23.23,5.8-12.33-2.6-33.8-25.98-42-39.88-5.27-6.45-6.37-15.34,1.91-23.25,7.61-8.04,24.6-15.09,40.09-20.87,15.48-6.66,33.34-9.4,40.86-1.04,8.34,7.45,6.36,26.01,1.14,40.91Z" fill="#fb5be1"/><path d="m550.13,677.34c-4.34,15.13-10.73,30.61-18.77,38.32-7.84,8.23-17.35,8.7-23.23,5.8-12.33-2.6-33.8-25.98-42-39.88-5.27-6.45-6.37-15.34,1.91-23.25,7.61-8.04,24.6-15.09,40.09-20.87,15.48-6.66,33.34-9.4,40.86-1.04,8.34,7.45,6.36,26.01,1.14,40.91Z" fill="#985bfb"/><path d="m634.13,509.34c-4.34,15.13-10.73,30.61-18.77,38.32-7.84,8.23-17.34,8.7-23.23,5.8-12.33-2.6-33.8-25.98-42-39.88-5.27-6.45-6.37-15.34,1.91-23.25,7.61-8.04,24.6-15.09,40.09-20.87,15.48-6.66,33.34-9.4,40.86-1.04,8.34,7.45,6.36,26.01,1.14,40.91Z" fill="#905bfb"/><path d="m634.13,593.34c-4.34,15.13-10.73,30.61-18.77,38.32-7.84,8.23-17.34,8.7-23.23,5.8-12.33-2.6-33.8-25.98-42-39.88-5.27-6.45-6.37-15.34,1.91-23.25,7.61-8.04,24.6-15.09,40.09-20.87,15.48-6.66,33.34-9.4,40.86-1.04,8.34,7.45,6.36,26.01,1.14,40.91Z" fill="#fb5bb0"/></g></svg>