<?xml version="1.0" encoding="utf-8"?>
<!-- Generator: Adobe Illustrator 27.3.1, SVG Export Plug-In . SVG Version: 6.00 Build 0)  -->
<svg version="1.1" id="Layer_1" xmlns="http://www.w3.org/2000/svg" xmlns:xlink="http://www.w3.org/1999/xlink" x="0px"
	y="0px" viewBox="0 0 24 24" preserveAspectRatio="xMidYMid slice" style="enable-background:new 0 0 24 24;"
	xml:space="preserve">
	<style type="text/css">
		.st0 {
			fill: #3629BC;
		}
	</style>
	<path class="st0" d="M11.4,8.4c-1.7,0-3,1.3-3,3s1.3,3,3,3s3-1.3,3-3S13.1,8.4,11.4,8.4 M21.6,2.4H2.4C1.1,2.4,0,3.5,0,4.8v14.4
	c0,1.3,1.1,2.4,2.4,2.4h19.2c1.3,0,2.4-1.1,2.4-2.4V4.8C24,3.5,22.9,2.4,21.6,2.4 M17.7,19.5L14.3,16c-0.8,0.5-1.8,0.8-2.9,0.8
	c-3,0-5.4-2.4-5.4-5.4S8.4,6,11.4,6c3,0,5.4,2.4,5.4,5.4c0,1-0.3,2-0.8,2.9l3.5,3.5L17.7,19.5z" />
</svg>
