<svg width="24" height="24" viewBox="0 0 24 24" fill="none" xmlns="http://www.w3.org/2000/svg">
<path d="M11 17H13L13.3 15.5C13.5 15.4167 13.6877 15.329 13.863 15.237C14.0383 15.145 14.2173 15.0327 14.4 14.9L15.85 15.35L16.85 13.65L15.7 12.65C15.7333 12.4167 15.75 12.2 15.75 12C15.75 11.8 15.7333 11.5833 15.7 11.35L16.85 10.35L15.85 8.65L14.4 9.1C14.2167 8.96667 14.0377 8.854 13.863 8.762C13.6883 8.67 13.5007 8.58267 13.3 8.5L13 7H11L10.7 8.5C10.5 8.58334 10.3123 8.671 10.137 8.763C9.96167 8.855 9.78267 8.96734 9.6 9.1L8.15 8.65L7.15 10.35L8.3 11.35C8.26667 11.5833 8.25 11.8 8.25 12C8.25 12.2 8.26667 12.4167 8.3 12.65L7.15 13.65L8.15 15.35L9.6 14.9C9.78334 15.0333 9.96267 15.146 10.138 15.238C10.3133 15.33 10.5007 15.4173 10.7 15.5L11 17ZM12 14C11.45 14 10.979 13.804 10.587 13.412C10.195 13.02 9.99934 12.5493 10 12C10 11.45 10.196 10.979 10.588 10.587C10.98 10.195 11.4507 9.99934 12 10C12.55 10 13.021 10.196 13.413 10.588C13.805 10.98 14.0007 11.4507 14 12C14 12.55 13.804 13.021 13.412 13.413C13.02 13.805 12.5493 14.0007 12 14ZM5 21C4.45 21 3.979 20.804 3.587 20.412C3.195 20.02 2.99934 19.5493 3 19V5C3 4.45 3.196 3.979 3.588 3.587C3.98 3.195 4.45067 2.99934 5 3H19C19.55 3 20.021 3.196 20.413 3.588C20.805 3.98 21.0007 4.45067 21 5V19C21 19.55 20.804 20.021 20.412 20.413C20.02 20.805 19.5493 21.0007 19 21H5Z" fill="#8178E1"/>
</svg>
