<?xml version="1.0" encoding="utf-8"?>
<!-- Generator: Adobe Illustrator 27.3.1, SVG Export Plug-In . SVG Version: 6.00 Build 0)  -->
<svg version="1.1" id="Layer_1" xmlns="http://www.w3.org/2000/svg" xmlns:xlink="http://www.w3.org/1999/xlink" x="0px"
	y="0px" viewBox="0 0 24 24" preserveAspectRatio="xMidYMid slice" style="enable-background:new 0 0 24 24;"
	xml:space="preserve">
	<style type="text/css">
		.st0 {
			fill: #3629BC;
		}
	</style>
	<path class="st0" d="M10.7,18.7h2.7l0.4-2c0.3-0.1,0.5-0.2,0.8-0.4c0.2-0.1,0.5-0.3,0.7-0.4l1.9,0.6l1.3-2.3l-1.5-1.3
	c0-0.3,0.1-0.6,0.1-0.9s0-0.6-0.1-0.9l1.5-1.3l-1.3-2.3l-1.9,0.6C15,8,14.7,7.8,14.5,7.7c-0.2-0.1-0.5-0.2-0.8-0.3l-0.4-2h-2.7
	l-0.4,2C10,7.4,9.7,7.6,9.5,7.7C9.3,7.8,9,8,8.8,8.1L6.9,7.5L5.5,9.8l1.5,1.3C7,11.4,7,11.7,7,12s0,0.6,0.1,0.9l-1.5,1.3l1.3,2.3
	l1.9-0.6C9,16,9.3,16.2,9.5,16.3c0.2,0.1,0.5,0.2,0.7,0.3L10.7,18.7z M12,14.7c-0.7,0-1.4-0.3-1.9-0.8c-0.5-0.5-0.8-1.2-0.8-1.9
	c0-0.7,0.3-1.4,0.8-1.9c0.5-0.5,1.2-0.8,1.9-0.8c0.7,0,1.4,0.3,1.9,0.8c0.5,0.5,0.8,1.2,0.8,1.9c0,0.7-0.3,1.4-0.8,1.9
	C13.4,14.4,12.7,14.7,12,14.7z M2.7,24c-0.7,0-1.4-0.3-1.9-0.8C0.3,22.7,0,22.1,0,21.3V2.7c0-0.7,0.3-1.4,0.8-1.9S1.9,0,2.7,0h18.7
	c0.7,0,1.4,0.3,1.9,0.8S24,1.9,24,2.7v18.7c0,0.7-0.3,1.4-0.8,1.9c-0.5,0.5-1.2,0.8-1.9,0.8H2.7z" />
</svg>
