<?xml version="1.0" encoding="utf-8"?>
<!-- Generator: Adobe Illustrator 27.3.1, SVG Export Plug-In . SVG Version: 6.00 Build 0)  -->
<svg version="1.1" id="Layer_1" xmlns="http://www.w3.org/2000/svg" xmlns:xlink="http://www.w3.org/1999/xlink" x="0px"
	y="0px" viewBox="0 0 24 24" preserveAspectRatio="xMidYMid slice" style="enable-background:new 0 0 24 24;"
	xml:space="preserve">
	<style type="text/css">
		.st0 {
			fill: #3629BC;
		}
	</style>
	<path class="st0" d="M12.1,24l-0.3-3.6h-0.3c-2.8,0-5.2-1-7.2-3s-3-4.4-3-7.2c0-2.8,1-5.2,3-7.2s4.4-3,7.2-3c1.4,0,2.7,0.3,4,0.8
	s2.3,1.3,3.2,2.2s1.7,2,2.2,3.2s0.8,2.6,0.8,4c0,3-0.9,5.8-2.7,8.2C17.1,20.8,14.9,22.7,12.1,24z M11.5,16.8c0.3,0,0.6-0.1,0.9-0.4
	s0.4-0.5,0.4-0.9c0-0.3-0.1-0.6-0.4-0.9c-0.2-0.2-0.5-0.4-0.9-0.4c-0.3,0-0.6,0.1-0.9,0.4c-0.2,0.2-0.4,0.5-0.4,0.9
	c0,0.3,0.1,0.6,0.4,0.9S11.1,16.8,11.5,16.8z M11.5,13c0.2,0,0.4-0.1,0.6-0.2c0.2-0.2,0.3-0.4,0.4-0.7c0-0.3,0.2-0.5,0.3-0.7
	c0.2-0.2,0.5-0.5,0.9-1c0.4-0.4,0.7-0.8,0.9-1.2C14.9,8.8,15,8.3,15,7.9c0-1-0.3-1.8-1-2.3c-0.7-0.5-1.5-0.8-2.4-0.8
	c-0.7,0-1.3,0.2-1.8,0.5C9.2,5.6,8.8,6,8.4,6.5C8.3,6.7,8.3,6.9,8.4,7.2c0.1,0.2,0.3,0.4,0.6,0.5c0.2,0.1,0.4,0.1,0.6,0
	c0.2-0.1,0.4-0.2,0.5-0.4c0.2-0.2,0.4-0.4,0.6-0.5c0.2-0.1,0.5-0.2,0.9-0.2c0.5,0,0.9,0.2,1.2,0.5c0.3,0.3,0.4,0.6,0.4,1
	c0,0.3-0.1,0.6-0.3,0.9c-0.2,0.3-0.4,0.5-0.7,0.8c-0.6,0.5-0.9,0.9-1.1,1.2c-0.2,0.3-0.3,0.7-0.3,1.2c0,0.2,0.1,0.4,0.2,0.6
	C11,12.9,11.2,13,11.5,13z" />
</svg>
