<?xml version="1.0" encoding="utf-8"?>
<!-- Generator: Adobe Illustrator 27.3.1, SVG Export Plug-In . SVG Version: 6.00 Build 0)  -->
<svg version="1.1" id="Layer_1" xmlns="http://www.w3.org/2000/svg" xmlns:xlink="http://www.w3.org/1999/xlink" x="0px" y="0px"
	 viewBox="0 0 24 24" style="enable-background:new 0 0 24 24;" xml:space="preserve">
<style type="text/css">
	.st0{fill:#3629BC;}
</style>
<path class="st0" d="M10.7,19.2l6.8-6.8l-1.7-1.7l-5.1,5.1l-2.5-2.5l-1.7,1.7L10.7,19.2z M4.8,24c-0.7,0-1.2-0.2-1.7-0.7
	c-0.5-0.5-0.7-1-0.7-1.7V2.4c0-0.7,0.2-1.2,0.7-1.7S4.1,0,4.8,0h9.6l7.2,7.2v14.4c0,0.7-0.2,1.2-0.7,1.7c-0.5,0.5-1,0.7-1.7,0.7H4.8
	z M13.2,8.4h6l-6-6V8.4z"/>
</svg>
