<?xml version="1.0" encoding="UTF-8" standalone="no"?>
<svg
   version="1.1"
   viewBox="0 0 800 800"
   preserveAspectRatio="xMidYMid slice"
   id="svg11313"
   sodipodi:docname="woah.svg"
   xmlns:inkscape="http://www.inkscape.org/namespaces/inkscape"
   xmlns:sodipodi="http://sodipodi.sourceforge.net/DTD/sodipodi-0.dtd"
   xmlns="http://www.w3.org/2000/svg"
   xmlns:svg="http://www.w3.org/2000/svg">
  <defs
     id="defs11317">
    <filter
       style="color-interpolation-filters:sRGB;"
       inkscape:label="Diffuse Light"
       id="filter11565"
       x="-0.015347095"
       y="-0.017265482"
       width="1.0306942"
       height="1.034531">
      <feGaussianBlur
         in="SourceGraphic"
         stdDeviation="6.44578"
         result="blur"
         id="feGaussianBlur11555" />
      <feDiffuseLighting
         diffuseConstant="1"
         surfaceScale="10"
         lighting-color="rgb(118,233,22)"
         result="diffuse"
         id="feDiffuseLighting11559">
        <feDistantLight
           elevation="116"
           azimuth="136"
           id="feDistantLight11557" />
      </feDiffuseLighting>
      <feComposite
         in="diffuse"
         in2="diffuse"
         operator="arithmetic"
         k1="1"
         result="composite1"
         id="feComposite11561" />
      <feComposite
         in="composite1"
         in2="SourceGraphic"
         k1="1"
         operator="arithmetic"
         k3="1"
         result="composite2"
         id="feComposite11563" />
    </filter>
  </defs>
  <sodipodi:namedview
     id="namedview11315"
     pagecolor="#ffffff"
     bordercolor="#666666"
     borderopacity="1.0"
     inkscape:pageshadow="2"
     inkscape:pageopacity="0.0"
     inkscape:pagecheckerboard="0"
     showgrid="false"
     inkscape:zoom="0.89875"
     inkscape:cx="250.90403"
     inkscape:cy="400"
     inkscape:window-width="1920"
     inkscape:window-height="1013"
     inkscape:window-x="0"
     inkscape:window-y="0"
     inkscape:window-maximized="1"
     inkscape:current-layer="svg11313" />
  <g
     id="g11165">
    <circle
       r="56"
       cx="0"
       cy="0"
       fill="hsl(277, 95%, 67%)"
       id="circle11021" />
    <circle
       r="56"
       cx="0"
       cy="112"
       fill="hsl(221, 95%, 67%)"
       id="circle11023" />
    <circle
       r="56"
       cx="0"
       cy="224"
       fill="hsl(247, 95%, 67%)"
       id="circle11025" />
    <circle
       r="56"
       cx="0"
       cy="336"
       fill="hsl(306, 95%, 67%)"
       id="circle11027" />
    <circle
       r="56"
       cx="0"
       cy="448"
       fill="hsl(245, 95%, 67%)"
       id="circle11029" />
    <circle
       r="56"
       cx="0"
       cy="560"
       fill="hsl(286, 95%, 67%)"
       id="circle11031" />
    <circle
       r="56"
       cx="0"
       cy="672"
       fill="hsl(245, 95%, 67%)"
       id="circle11033" />
    <circle
       r="56"
       cx="0"
       cy="784"
       fill="hsl(240, 95%, 67%)"
       id="circle11035" />
    <circle
       r="56"
       cx="112"
       cy="0"
       fill="hsl(279, 95%, 67%)"
       id="circle11037" />
    <circle
       r="56"
       cx="112"
       cy="112"
       fill="hsl(293, 95%, 67%)"
       id="circle11039" />
    <circle
       r="56"
       cx="112"
       cy="224"
       fill="hsl(313, 95%, 67%)"
       id="circle11041" />
    <circle
       r="56"
       cx="112"
       cy="336"
       fill="hsl(269, 95%, 67%)"
       id="circle11043" />
    <circle
       r="56"
       cx="112"
       cy="448"
       fill="hsl(248, 95%, 67%)"
       id="circle11045" />
    <circle
       r="56"
       cx="112"
       cy="560"
       fill="hsl(261, 95%, 67%)"
       id="circle11047" />
    <circle
       r="56"
       cx="112"
       cy="672"
       fill="hsl(307, 95%, 67%)"
       id="circle11049" />
    <circle
       r="56"
       cx="112"
       cy="784"
       fill="hsl(310, 95%, 67%)"
       id="circle11051" />
    <circle
       r="56"
       cx="224"
       cy="0"
       fill="hsl(267, 95%, 67%)"
       id="circle11053" />
    <circle
       r="56"
       cx="224"
       cy="112"
       fill="hsl(310, 95%, 67%)"
       id="circle11055" />
    <circle
       r="56"
       cx="224"
       cy="224"
       fill="hsl(237, 95%, 67%)"
       id="circle11057" />
    <circle
       r="56"
       cx="224"
       cy="336"
       fill="hsl(248, 95%, 67%)"
       id="circle11059" />
    <circle
       r="56"
       cx="224"
       cy="448"
       fill="hsl(326, 95%, 67%)"
       id="circle11061" />
    <circle
       r="56"
       cx="224"
       cy="560"
       fill="hsl(319, 95%, 67%)"
       id="circle11063" />
    <circle
       r="56"
       cx="224"
       cy="672"
       fill="hsl(281, 95%, 67%)"
       id="circle11065" />
    <circle
       r="56"
       cx="224"
       cy="784"
       fill="hsl(309, 95%, 67%)"
       id="circle11067" />
    <circle
       r="56"
       cx="336"
       cy="0"
       fill="hsl(194, 95%, 67%)"
       id="circle11069" />
    <circle
       r="56"
       cx="336"
       cy="112"
       fill="hsl(225, 95%, 67%)"
       id="circle11071" />
    <circle
       r="56"
       cx="336"
       cy="224"
       fill="hsl(234, 95%, 67%)"
       id="circle11073" />
    <circle
       r="56"
       cx="336"
       cy="336"
       fill="hsl(197, 95%, 67%)"
       id="circle11075" />
    <circle
       r="56"
       cx="336"
       cy="448"
       fill="hsl(282, 95%, 67%)"
       id="circle11077" />
    <circle
       r="56"
       cx="336"
       cy="560"
       fill="hsl(329, 95%, 67%)"
       id="circle11079" />
    <circle
       r="56"
       cx="336"
       cy="672"
       fill="hsl(266, 95%, 67%)"
       id="circle11081" />
    <circle
       r="56"
       cx="336"
       cy="784"
       fill="hsl(250, 95%, 67%)"
       id="circle11083" />
    <circle
       r="56"
       cx="448"
       cy="0"
       fill="hsl(226, 95%, 67%)"
       id="circle11085" />
    <circle
       r="56"
       cx="448"
       cy="112"
       fill="hsl(239, 95%, 67%)"
       id="circle11087" />
    <circle
       r="56"
       cx="448"
       cy="224"
       fill="hsl(321, 95%, 67%)"
       id="circle11089" />
    <circle
       r="56"
       cx="448"
       cy="336"
       fill="hsl(280, 95%, 67%)"
       id="circle11091" />
    <circle
       r="56"
       cx="448"
       cy="448"
       fill="hsl(348, 95%, 67%)"
       id="circle11093" />
    <circle
       r="56"
       cx="448"
       cy="560"
       fill="hsl(289, 95%, 67%)"
       id="circle11095" />
    <circle
       r="56"
       cx="448"
       cy="672"
       fill="hsl(285, 95%, 67%)"
       id="circle11097" />
    <circle
       r="56"
       cx="448"
       cy="784"
       fill="hsl(309, 95%, 67%)"
       id="circle11099" />
    <circle
       r="56"
       cx="560"
       cy="0"
       fill="hsl(271, 95%, 67%)"
       id="circle11101" />
    <circle
       r="56"
       cx="560"
       cy="112"
       fill="hsl(304, 95%, 67%)"
       id="circle11103" />
    <circle
       r="56"
       cx="560"
       cy="224"
       fill="hsl(329, 95%, 67%)"
       id="circle11105" />
    <circle
       r="56"
       cx="560"
       cy="336"
       fill="hsl(232, 95%, 67%)"
       id="circle11107" />
    <circle
       r="56"
       cx="560"
       cy="448"
       fill="hsl(249, 95%, 67%)"
       id="circle11109" />
    <circle
       r="56"
       cx="560"
       cy="560"
       fill="hsl(244, 95%, 67%)"
       id="circle11111" />
    <circle
       r="56"
       cx="560"
       cy="672"
       fill="hsl(324, 95%, 67%)"
       id="circle11113" />
    <circle
       r="56"
       cx="560"
       cy="784"
       fill="hsl(253, 95%, 67%)"
       id="circle11115" />
    <circle
       r="56"
       cx="672"
       cy="0"
       fill="hsl(272, 95%, 67%)"
       id="circle11117" />
    <circle
       r="56"
       cx="672"
       cy="112"
       fill="hsl(203, 95%, 67%)"
       id="circle11119" />
    <circle
       r="56"
       cx="672"
       cy="224"
       fill="hsl(317, 95%, 67%)"
       id="circle11121" />
    <circle
       r="56"
       cx="672"
       cy="336"
       fill="hsl(272, 95%, 67%)"
       id="circle11123" />
    <circle
       r="56"
       cx="672"
       cy="448"
       fill="hsl(232, 95%, 67%)"
       id="circle11125" />
    <circle
       r="56"
       cx="672"
       cy="560"
       fill="hsl(254, 95%, 67%)"
       id="circle11127" />
    <circle
       r="56"
       cx="672"
       cy="672"
       fill="hsl(318, 95%, 67%)"
       id="circle11129" />
    <circle
       r="56"
       cx="672"
       cy="784"
       fill="hsl(263, 95%, 67%)"
       id="circle11131" />
    <circle
       r="56"
       cx="784"
       cy="0"
       fill="hsl(353, 95%, 67%)"
       id="circle11133" />
    <circle
       r="56"
       cx="784"
       cy="112"
       fill="hsl(286, 95%, 67%)"
       id="circle11135" />
    <circle
       r="56"
       cx="784"
       cy="224"
       fill="hsl(255, 95%, 67%)"
       id="circle11137" />
    <circle
       r="56"
       cx="784"
       cy="336"
       fill="hsl(305, 95%, 67%)"
       id="circle11139" />
    <circle
       r="56"
       cx="784"
       cy="448"
       fill="hsl(312, 95%, 67%)"
       id="circle11141" />
    <circle
       r="56"
       cx="784"
       cy="560"
       fill="hsl(252, 95%, 67%)"
       id="circle11143" />
    <circle
       r="56"
       cx="784"
       cy="672"
       fill="hsl(309, 95%, 67%)"
       id="circle11145" />
    <circle
       r="56"
       cx="784"
       cy="784"
       fill="hsl(270, 95%, 67%)"
       id="circle11147" />
    <circle
       r="56"
       cx="896"
       cy="0"
       fill="hsl(353, 95%, 67%)"
       id="circle11149" />
    <circle
       r="56"
       cx="896"
       cy="112"
       fill="hsl(286, 95%, 67%)"
       id="circle11151" />
    <circle
       r="56"
       cx="896"
       cy="224"
       fill="hsl(255, 95%, 67%)"
       id="circle11153" />
    <circle
       r="56"
       cx="896"
       cy="336"
       fill="hsl(305, 95%, 67%)"
       id="circle11155" />
    <circle
       r="56"
       cx="896"
       cy="448"
       fill="hsl(312, 95%, 67%)"
       id="circle11157" />
    <circle
       r="56"
       cx="896"
       cy="560"
       fill="hsl(252, 95%, 67%)"
       id="circle11159" />
    <circle
       r="56"
       cx="896"
       cy="672"
       fill="hsl(309, 95%, 67%)"
       id="circle11161" />
    <circle
       r="56"
       cx="896"
       cy="784"
       fill="hsl(270, 95%, 67%)"
       id="circle11163" />
  </g>
  <g
     transform="translate(-56)"
     id="g11311"
     style="filter:url(#filter11565)">
    <circle
       r="54.856907"
       cx="0"
       cy="56"
       fill="#5b6dfb"
       id="circle11167"
       style="stroke-width:0.979587" />
    <circle
       r="50.196587"
       cx="0"
       cy="168"
       fill="#5b68fb"
       id="circle11169"
       style="stroke-width:0.896366" />
    <circle
       r="52.283901"
       cx="0"
       cy="280"
       fill="#b65bfb"
       id="circle11171"
       style="stroke-width:0.933639" />
    <path
       id="circle11173"
       style="fill:#ce5bfb;stroke-width:0.905123"
       d="m -1.2871094,341.32031 c -23.0439416,0.25034 -44.5242276,18.29942 -48.4848756,41.05242 -4.042298,20.42375 5.7581,42.9947 24.025927,53.27198 16.6998696,9.92631 39.199027,9.32201 54.958949,-2.24237 15.38422,-10.81413 24.227168,-30.55504 20.904957,-49.22005 -2.852064,-18.35584 -16.37866,-34.74861 -34.22646,-40.28735 -5.524617,-1.82617 -11.3602138,-2.71167 -17.1784974,-2.57463 z" />
    <path
       id="circle11175"
       style="fill:#935bfb;stroke-width:0.986987"
       d="m -1.0058594,448.71875 c -26.4239586,0.046 -51.0392266,21.77759 -53.8044076,48.16463 -2.947162,22.20724 8.809381,45.8856 29.0179,55.96995 18.5218091,9.8464 42.758955,8.24681 59.285437,-4.92129 C 49.744327,535.625 58.446039,513.92067 54.345066,493.83436 50.855247,474.94421 36.966665,458.22113 18.676612,452.02607 12.386952,449.74708 5.6851948,448.60264 -1.0058594,448.71875 Z" />
    <circle
       r="56"
       cx="0"
       cy="616"
       fill="#b85bfb"
       id="circle11177" />
    <circle
       r="56"
       cx="0"
       cy="728"
       fill="#5b73fb"
       id="circle11179" />
    <circle
       r="56"
       cx="0"
       cy="840"
       fill="#5b5bfb"
       id="circle11181" />
    <circle
       r="49.519928"
       cx="112"
       cy="56"
       fill="#a05bfb"
       id="circle11183"
       style="stroke-width:0.884284" />
    <circle
       r="45.876644"
       cx="112"
       cy="168"
       fill="#fb5ba6"
       id="circle11185"
       style="stroke-width:0.819224" />
    <path
       id="circle11187"
       style="fill:#d85bfb;stroke-width:0.850873"
       d="m 110.05469,232.37695 c -23.706985,0.53206 -45.11604,21.42627 -45.649356,45.24759 -1.068952,20.05459 11.730935,40.23933 30.791795,47.01271 17.000081,6.68166 38.241741,3.32321 50.847791,-10.39702 15.22881,-15.6736 18.30713,-42.12493 5.81793,-60.33283 -8.94426,-13.76251 -25.35792,-22.41665 -41.80816,-21.53045 z" />
    <path
       id="circle11189"
       style="fill:#8e5bfb;stroke-width:0.828842"
       d="m 109.23047,346.33789 c -24.311537,0.5575 -45.654794,24.01128 -43.182731,48.35325 1.296898,22.19634 20.705464,41.52018 42.829391,43.07884 18.01211,2.27636 37.95597,-3.85733 49.14411,-18.71111 7.14134,-11.06991 5.66046,-25.36534 1.18796,-37.15055 -6.86292,-19.21398 -25.18798,-34.88849 -46.02786,-35.54502 -1.3164,-0.0324 -2.63409,-0.0311 -3.95087,-0.0254 z" />
    <path
       id="circle11191"
       style="fill:#765bfb;stroke-width:0.957981"
       d="m 112.71484,449.84766 c -24.20565,0.92953 -47.604599,18.49136 -53.048075,42.47602 -6.39432,26.28793 10.748274,56.27143 37.167837,63.04609 22.673788,6.47452 48.085848,-3.62937 62.101958,-22.13743 13.06499,-15.28927 17.40464,-38.62081 7.73922,-56.74211 -8.57478,-16.02374 -26.52928,-25.27018 -44.27704,-26.35739 -3.2179,-0.27991 -6.4554,-0.36899 -9.6839,-0.28518 z" />
    <path
       id="circle11193"
       style="fill:#de5bfb;stroke-width:0.951693"
       d="M 111.55859 562.52344 C 83.761646 562.37595 58.337037 587.3912 58.629915 615.30299 C 58.125676 641.08022 78.752531 665.97194 104.65328 668.80335 C 127.65077 672.02969 152.39915 658.73716 161.01692 636.89071 C 169.02865 618.72997 167.11211 595.5979 153.4406 580.62239 C 142.98947 568.88382 127.2191 562.2821 111.55859 562.52344 z " />
    <circle
       r="55.714394"
       cx="112"
       cy="728"
       fill="#fb5bce"
       id="circle11195"
       style="stroke-width:0.994899" />
    <circle
       r="56"
       cx="112"
       cy="840"
       fill="#fb5be1"
       id="circle11197" />
    <circle
       r="48.758183"
       cx="224"
       cy="56"
       fill="#c05bfb"
       id="circle11199"
       style="stroke-width:0.870684" />
    <circle
       r="46.848598"
       cx="224"
       cy="168"
       fill="#d35bfb"
       id="circle11201"
       style="stroke-width:0.836577" />
    <path
       id="circle11203"
       style="fill:#5ba8fb;stroke-width:0.927572"
       d="m 222.34961,228.00586 c -27.30478,0.34391 -51.74278,25.78328 -50.28241,53.18942 0.74871,22.48837 16.00023,44.61839 37.95795,51.02661 27.94327,7.3418 59.40036,-12.71526 65.10008,-40.92116 5.39841,-24.2734 -9.07039,-51.5098 -32.67832,-59.83155 -6.3805,-2.47257 -13.25843,-3.64507 -20.0973,-3.46332 z" />
    <path
       id="circle11205"
       style="fill:#e95bfb;stroke-width:0.82579"
       d="m 223.0957,348.57422 c -24.91391,0.58301 -45.86851,25.7303 -42.22693,50.32627 2.00558,17.04206 12.00222,34.03547 28.24334,40.90087 13.16775,5.84953 29.50631,3.23304 40.21124,-6.41428 16.07161,-13.10487 23.99629,-36.64454 16.29398,-56.34506 -6.76225,-16.78398 -24.21142,-29.1702 -42.52163,-28.4678 z" />
    <path
       id="circle11207"
       style="fill:#fb5bb6;stroke-width:0.908118"
       d="M 213.25391 456.11914 C 207.03386 457.58974 201.89948 461.70256 196.36196 464.63834 C 181.74541 477.02887 176.4842 498.76712 182.78303 516.71883 C 187.12738 530.11679 197.63271 541.53706 211.1051 546.02872 C 229.94885 552.92017 252.71974 550.36636 268.37891 537.38086 C 270.89574 535.31477 272.15137 532.02929 271.48651 528.84519 C 271.9603 514.10015 271.77716 498.25768 263.62944 485.35716 C 253.4898 467.73942 233.74415 455.7179 213.25391 456.11914 z " />
    <path
       id="circle11209"
       style="fill:#f35bfb;stroke-width:0.925817"
       d="M 234.70898 558.64648 C 208.08224 559.58122 182.16594 577.95703 174.75642 603.9365 C 166.71867 629.56063 184.45333 659.24661 210.24936 665.62003 C 236.05698 672.6271 264.952 655.79807 273.28114 630.74632 C 279.07003 614.2173 280.38827 595.11263 272.34708 579.0825 C 267.78148 570.02689 259.46142 562.82658 249.50312 560.46116 C 244.70449 559.09187 239.69319 558.52375 234.70898 558.64648 z " />
    <path
       id="circle11211"
       style="fill:#b05bfb;stroke-width:0.955978"
       d="M 224.3125 673.98828 C 197.87263 674.00801 172.77886 695.85472 170.75502 722.5204 C 168.08566 746.37908 183.44971 771.30707 206.54297 778.57617 C 226.74164 785.64415 251.13277 779.46595 264.71911 762.69811 C 277.93661 747.31209 281.47589 724.21761 272.89113 705.74543 C 265.32431 688.06116 247.62534 674.52682 228.09762 674.0534 C 226.83704 673.98676 225.57458 673.97142 224.3125 673.98828 z " />
    <circle
       r="55.58371"
       cx="224"
       cy="840"
       fill="#fb5be3"
       id="circle11213"
       style="stroke-width:0.992567" />
    <circle
       r="50.870659"
       cx="336"
       cy="56"
       fill="#5bbbfb"
       id="circle11215"
       style="stroke-width:0.908406" />
    <path
       id="circle11217"
       style="fill:#5b65fb;stroke-width:0.931683"
       d="m 334.77734,115.82812 c -25.31622,0.15446 -48.68756,21.45296 -50.67475,46.79226 -2.32542,21.71033 10.27507,44.43661 30.56766,52.97707 17.63332,8.06431 40.08509,5.89095 54.72825,-7.26463 15.9697,-13.47504 23.16926,-36.89883 16.11816,-56.78627 -6.10546,-18.66444 -23.44747,-33.20024 -43.06549,-35.31022 -2.54445,-0.31763 -5.10994,-0.45726 -7.67383,-0.40821 z" />
    <path
       id="circle11219"
       style="fill:#5ba0fb;stroke-width:0.837409"
       d="m 334.96484,233.63086 c -24.44413,-0.32875 -46.66585,22.42335 -45.1639,46.9352 0.99664,22.18842 18.5241,41.51574 39.58653,47.19845 13.46631,3.70078 28.98341,4.49666 41.27076,-3.16074 9.43429,-6.78459 12.56443,-18.93375 13.44458,-29.93637 1.89177,-19.30959 -5.42818,-40.15118 -21.44705,-51.78807 -7.93938,-5.88976 -17.75248,-9.44019 -27.69092,-9.24847 z" />
    <path
       id="circle11221"
       style="fill:#5b8efb;stroke-width:0.905571"
       d="M 336.88086 343.77344 C 309.59932 345.07766 285.37635 369.96083 285.89453 397.47266 C 286.18289 417.81858 300.72219 437.97623 321.03448 442.27804 C 344.38781 447.68598 370.28861 434.05897 379.47481 411.99438 C 385.70548 398.94284 388.99687 384.33134 388.25391 369.86133 C 386.74305 360.61469 379.40218 353.1757 370.72643 350.15429 C 360.15537 345.35931 348.41834 343.65362 336.88086 343.77344 z " />
    <path
       id="circle11223"
       style="fill:#fb5bde;stroke-width:0.996637"
       d="M 339.55469 449.19922 C 310.41689 451.05464 283.22008 473.01642 276.64062 501.70117 C 274.26584 516.6081 279.06276 532.05629 287.54823 544.26743 C 297.81985 551.67079 309.59536 557.91201 322.49341 558.51577 C 343.67071 559.97321 366.25826 551.34964 378.74881 533.70415 C 393.55123 512.86138 391.38778 482.00019 373.96289 463.33789 C 365.2516 453.70539 352.43198 448.86408 339.55469 449.19922 z " />
    <path
       id="circle11225"
       style="fill:#fb5bdb;stroke-width:0.953271"
       d="M 323.03906 561.13281 C 313.61941 561.39979 303.09011 563.35649 296.70516 570.90532 C 295.08131 573.25508 292.47654 574.84023 291.47852 577.66406 C 280.41511 598.89731 281.57184 626.29647 295.16992 646.13867 C 302.89681 657.67674 315.71675 665.44394 329.47474 667.15442 C 346.29898 669.62268 364.40527 663.52265 375.40039 650.33789 C 390.46886 632.7324 391.95866 604.42344 377.33203 586.09375 C 364.75808 569.52141 343.65441 560.44656 323.03906 561.13281 z " />
    <path
       id="circle11227"
       style="fill:#5b7bfb;stroke-width:0.956686"
       d="M 331.98242 673.15234 C 311.35245 674.12093 293.38405 689.50094 286.03886 708.3099 C 278.98833 725.96054 282.5022 747.09846 294.4927 761.77553 C 304.81003 775.075 321.89751 782.36027 338.60727 781.4263 C 354.35337 780.77108 369.6707 772.8618 378.91211 760.02148 C 390.51323 744.52947 393.12987 722.54534 384.40857 705.10142 C 375.35533 685.83541 354.63834 672.54379 333.24805 673.11719 C 332.82617 673.12891 332.4043 673.14062 331.98242 673.15234 z " />
    <circle
       r="55.891888"
       cx="336"
       cy="840"
       fill="#765bfb"
       id="circle11229"
       style="stroke-width:0.998069" />
    <circle
       r="55.990574"
       cx="448"
       cy="56"
       fill="#5b9bfb"
       id="circle11231"
       style="stroke-width:0.999831" />
    <path
       id="circle11233"
       style="fill:#fb5be3;stroke-width:0.997468"
       d="m 446.91992,112.16406 c -27.71768,-0.0458 -53.2779,23.81502 -54.61576,51.60314 -1.96955,25.21384 14.70229,51.2028 39.28723,58.30214 21.70866,6.63496 46.87281,-1.76446 60.50577,-19.85772 11.41745,-14.61932 15.07327,-35.07253 8.65363,-52.57704 -6.231,-18.10445 -22.27214,-32.51786 -41.12255,-36.25703 -4.16804,-0.90593 -8.44418,-1.31312 -12.70832,-1.21349 z" />
    <path
       id="circle11235"
       style="fill:#e35bfb;stroke-width:0.946921"
       d="m 447.89258,227.58789 c -18.70397,-0.0444 -35.98761,11.77343 -45.02418,27.77151 -5.74935,9.70395 -7.99288,21.12029 -7.4602,32.31443 0.44035,14.77141 4.15849,29.90527 12.78535,42.07569 6.7782,5.90581 16.37427,6.12873 24.90414,6.41891 23.58273,0.75882 48.12935,-10.74895 60.11747,-31.54371 10.87088,-18.17627 8.71647,-43.13417 -5.43764,-58.96987 -9.80672,-11.44376 -24.74874,-18.48422 -39.88494,-18.06696 z" />
    <path
       id="circle11237"
       style="fill:#fb5bc8;stroke-width:0.98444"
       d="m 442.39648,339.29102 c -13.38621,0.42098 -26.59975,4.1032 -38.63546,9.86928 -4.63669,3.60448 -4.46234,10.29611 -8.11454,14.64243 -1.18599,11.85668 -6.41342,23.71109 -3.18051,35.69284 5.24884,23.4521 26.4948,42.60977 50.61411,44.44779 19.06163,1.93142 39.17793,-6.82835 49.56481,-23.16569 11.49149,-17.2196 10.72759,-41.33007 -1.42578,-58.00874 -11.07283,-15.24882 -30.10695,-23.95755 -48.82263,-23.47791 z" />
    <path
       id="circle11239"
       style="fill:#fb5bcb;stroke-width:0.999132"
       d="M 437.39258 444.95117 C 417.11711 446.52581 399.85035 462.00358 392.90232 480.63859 C 384.74751 500.33805 389.21591 524.35462 403.60723 540.02599 C 417.90637 556.11247 441.36153 563.65723 462.24299 557.92343 C 479.108 553.61084 493.98632 541.19152 499.96776 524.66838 C 507.92882 504.45811 503.37132 479.34761 487.16772 464.45105 C 474.22276 451.44214 455.69922 444.32703 437.39258 444.95117 z " />
    <path
       id="circle11241"
       style="fill:#e65bfb;stroke-width:0.980594"
       d="M 444.89258 561.04492 C 422.34187 562.12621 400.41741 577.46911 393.54297 599.2832 C 386.04138 625.2071 400.72667 655.16568 425.26562 665.98438 C 446.35461 675.68206 473.61092 670.46545 488.82243 652.69076 C 503.95744 636.04241 507.56984 609.65602 496.33121 589.95886 C 486.72482 571.96897 466.56 560.09039 446.10082 561.02816 C 445.69807 561.03375 445.29533 561.03933 444.89258 561.04492 z " />
    <path
       id="circle11243"
       style="fill:#c35bfb;stroke-width:0.997469"
       d="M 443.61133 672.31055 C 425.04352 673.66381 407.50419 684.89546 398.84764 701.42824 C 389.49078 718.46103 390.04626 740.35 400.21749 756.90776 C 409.94268 773.22245 428.42734 783.78705 447.42694 783.83495 C 466.50405 784.17754 485.29575 773.90579 495.30826 757.66231 C 505.98149 740.93028 506.70276 718.44988 496.96557 701.12425 C 487.04465 682.59252 465.9414 670.80924 444.95014 672.25928 C 444.50387 672.27637 444.0576 672.29346 443.61133 672.31055 z " />
    <circle
       r="56"
       cx="448"
       cy="840"
       fill="#fb5be3"
       id="circle11245" />
    <circle
       r="55.892162"
       cx="560"
       cy="56"
       fill="#b65bfb"
       id="circle11247"
       style="stroke-width:0.998075" />
    <path
       id="circle11249"
       style="fill:#fb5b80;stroke-width:0.97138"
       d="m 557.53906,113.62891 c -27.2647,0.74564 -51.80821,25.11157 -51.90234,52.55078 -0.87345,23.09672 14.41516,46.19828 36.66016,53.21484 21.00768,7.35762 46.58651,0.96056 60.43369,-16.8109 13.38935,-16.39555 15.5614,-40.76826 5.61923,-59.40795 -8.08964,-15.87372 -24.27617,-27.47624 -42.1149,-29.18591 -2.88426,-0.34019 -5.79351,-0.4419 -8.69584,-0.36086 z" />
    <path
       id="circle11251"
       style="fill:#c65bfb;stroke-width:0.968961"
       d="m 558.05273,225.77539 c -28.49075,0.42216 -53.267,26.73637 -53.06939,55.02356 -1.174,26.55951 21.87014,50.5203 47.89177,52.86106 28.33825,3.86859 58.02191,-16.65828 63.51028,-44.90684 2.90112,-14.08097 -1.58477,-29.05891 -10.77003,-39.96069 -11.27851,-14.29772 -29.20668,-23.5399 -47.56263,-23.01709 z" />
    <path
       id="circle11253"
       style="fill:#5d5bfb;stroke-width:0.989389"
       d="m 558.66992,336.50781 c -23.88986,0.85772 -47.23313,17.09392 -54.35577,40.25038 -5.26681,18.41544 1.71779,38.61609 14.42413,52.3629 12.92717,14.5576 33.86487,21.30773 52.84887,16.98144 17.26682,-3.59764 32.57993,-15.80782 39.29965,-32.20427 8.94553,-20.45164 5.04112,-46.64108 -11.56589,-62.10192 -10.73969,-10.31421 -25.80396,-15.84471 -40.65099,-15.28853 z" />
    <path
       id="circle11255"
       style="fill:#5b6dfb;stroke-width:0.982639"
       d="m 558.90039,448.97266 c -26.32045,0.0809 -50.83677,21.79329 -53.487,48.09744 -2.89133,22.18687 8.97864,45.79961 29.22798,55.73454 18.50952,9.67331 42.63217,7.92792 59.00121,-5.29487 16.36689,-12.60368 24.94633,-34.85258 20.13401,-55.10194 -4.10897,-19.34921 -19.26517,-36.0922 -38.49367,-41.23774 -5.31028,-1.54406 -10.85226,-2.29668 -16.38253,-2.19743 z" />
    <circle
       r="53.517857"
       cx="560"
       cy="616"
       fill="#fb5be9"
       id="circle11257"
       style="stroke-width:0.955676" />
    <circle
       r="55.85799"
       cx="560"
       cy="728"
       fill="#fb5bfb"
       id="circle11259"
       style="stroke-width:0.997463" />
    <circle
       r="56"
       cx="560"
       cy="840"
       fill="#7e5bfb"
       id="circle11261" />
    <path
       id="circle11263"
       style="fill:#5b76fb;stroke-width:0.997441"
       d="M 670.91406,0.16601562 C 642.95331,0.0991884 617.19359,24.453362 616.26709,52.509192 c -1.64139,23.842853 13.63408,48.144398 36.45505,55.889768 20.73503,7.71347 46.07173,2.00404 60.65007,-14.892551 14.37652,-15.751405 18.7952,-40.063576 9.93063,-59.611649 C 715.29555,15.04956 696.28961,1.3496394 675.7626,0.28109685 674.14926,0.16721008 672.53091,0.13953132 670.91406,0.16601562 Z" />
    <path
       id="circle11265"
       style="fill:#7b5bfb;stroke-width:0.935514"
       d="m 669.18555,115.66602 c -26.99116,0.85682 -50.9743,26.09517 -49.35938,53.26367 0.81236,23.75597 18.6063,44.96594 40.86217,52.23657 15.91191,5.85791 34.74376,6.70307 49.82461,-1.94601 11.37411,-7.19652 16.18061,-21.13309 16.64408,-34.03261 1.51913,-22.75964 -7.65144,-46.97287 -26.50273,-60.5392 -9.13481,-6.34007 -20.38529,-9.41208 -31.46875,-8.98242 z" />
    <path
       id="circle11267"
       style="fill:#fb5ba3;stroke-width:0.730165"
       d="m 676.57812,243.03711 c -17.78287,0.11452 -35.75415,12.40782 -39.75291,30.19059 -5.07119,20.11401 12.60138,42.10465 33.2905,41.68987 18.68687,0.19746 35.68412,-12.12989 44.5546,-28.0503 2.95212,-6.22305 6.97001,-12.25208 7.78935,-19.231 0.57288,-3.30809 -1.0019,-6.31264 -3.27802,-8.60502 -6.68891,-7.31306 -16.29033,-10.9972 -25.50327,-13.98295 -5.57185,-1.44958 -11.34215,-2.15646 -17.10025,-2.01119 z" />
    <path
       id="circle11269"
       style="fill:#5b6bfb;stroke-width:0.876693"
       d="m 676.62305,338.27148 c -27.12966,0.81775 -52.12052,24.04704 -53.46289,51.41993 -1.43932,23.70888 16.796,47.41748 40.60794,50.64944 21.77319,3.91333 45.90842,-8.811 53.41533,-29.9465 9.22382,-23.49373 0.6666,-53.30296 -20.93685,-66.93925 -5.89672,-3.48661 -12.75723,-5.40756 -19.62353,-5.18362 z" />
    <circle
       r="54.236736"
       cx="672"
       cy="504"
       fill="#5d5bfb"
       id="circle11271"
       style="stroke-width:0.968514" />
    <circle
       r="52.635201"
       cx="672"
       cy="616"
       fill="#f95bfb"
       id="circle11273"
       style="stroke-width:0.939915" />
    <circle
       r="54.100708"
       cx="672"
       cy="728"
       fill="#fb5be1"
       id="circle11275"
       style="stroke-width:0.966083" />
    <circle
       r="55.917469"
       cx="672"
       cy="840"
       fill="#985bfb"
       id="circle11277"
       style="stroke-width:0.998527" />
    <path
       id="circle11279"
       style="fill:#fb5bab;stroke-width:0.952564"
       d="M 783.01172,2.6699219 C 755.27795,2.5002468 730.03165,27.701595 730.66306,55.531748 c -0.41086,25.675565 19.82282,50.384322 45.50079,53.820732 21.90848,3.35002 44.99968,-8.78703 54.99826,-28.510683 8.82407,-16.600138 8.26952,-37.96345 -2.29202,-53.667571 C 819.09103,11.940634 801.21607,2.000086 783.01172,2.6699219 Z" />
    <path
       id="circle11281"
       style="fill:#5d5bfb;stroke-width:0.946824"
       d="m 782.58594,115.9375 c -26.83333,0.51288 -49.58252,25.70509 -49.2226,52.19351 -0.90563,21.89006 7.8568,44.89817 25.63103,58.32387 4.47197,2.87697 9.21146,5.46867 14.34157,6.94551 9.49819,-5.71105 20.42387,-8.6782 29.65625,-14.91016 15.26495,-9.72013 28.32977,-24.82866 31.23924,-43.15414 3.49327,-20.45457 -6.44188,-42.81957 -24.82909,-52.86148 -8.12751,-4.55576 -17.50889,-6.81096 -26.8164,-6.53711 z" />
    <path
       id="circle11283"
       style="fill:#d65bfb;stroke-width:0.823865"
       d="m 773.45117,236.125 c -5.04746,4.96916 -12.46872,5.92161 -18.28953,9.69246 -4.59562,2.56717 -9.4816,5.53504 -11.4571,10.69495 -6.29417,12.59189 -4.87219,28.2331 2.69331,39.96692 9.59012,15.78958 29.37117,25.77133 47.71567,21.24595 17.66998,-4.24892 30.96855,-22.30745 29.0297,-40.51444 -1.39095,-17.36071 -14.69465,-32.51746 -31.23939,-37.35927 -5.86449,-1.98927 -12.14872,-2.06251 -18.09524,-3.60352 -0.13201,0.0844 -0.2964,-0.47089 -0.35742,-0.12305 z" />
    <path
       id="circle11285"
       style="fill:#fb5be3;stroke-width:0.917321"
       d="m 775.75,334.9375 c -15.24679,0.94376 -28.12342,11.90746 -35.40667,24.77296 -11.8529,20.46852 -10.44355,48.5267 5.35208,66.55966 17.40417,20.37235 51.66924,22.78205 71.65567,4.89239 17.69683,-15.01481 23.65263,-42.85272 11.93075,-63.22482 C 818.87115,348.76238 797.98245,334.46626 775.75,334.9375 Z" />
    <circle
       r="50.451881"
       cx="784"
       cy="504"
       fill="#d85bfb"
       id="circle11287"
       style="stroke-width:0.900927" />
    <circle
       r="49.522942"
       cx="784"
       cy="616"
       fill="#905bfb"
       id="circle11289"
       style="stroke-width:0.884338" />
    <circle
       r="47.453129"
       cx="784"
       cy="728"
       fill="#fb5bb0"
       id="circle11291"
       style="stroke-width:0.847377" />
    <circle
       r="54.499165"
       cx="784"
       cy="840"
       fill="#ab5bfb"
       id="circle11293"
       style="stroke-width:0.9732" />
    <circle
       r="48.984112"
       cx="896"
       cy="56"
       fill="#fb5bab"
       id="circle11295"
       style="stroke-width:0.874717" />
    <path
       id="circle11297"
       style="fill:#5d5bfb;stroke-width:0.943922"
       d="m 895.33008,115.05859 c -19.9785,-0.0135 -38.35308,12.99546 -47.47976,30.35678 -8.51466,15.99554 -9.80684,36.71136 0.0512,52.43259 7.97938,13.06533 22.88566,20.21925 37.63689,22.32426 17.60311,2.66064 36.91737,-2.53303 49.05457,-16.00468 14.96702,-16.12806 19.04093,-42.05477 7.89471,-61.36367 -9.19427,-16.807 -27.88754,-28.19406 -47.15756,-27.74528 z" />
    <path
       id="circle11299"
       style="fill:#d65bfb;stroke-width:0.879136"
       d="m 893.13867,230.86523 c -19.06947,1.10291 -38.41315,11.15362 -47.57226,28.37891 -6.45362,11.9271 -3.91712,26.5875 2.12142,38.13457 8.61008,17.33735 26.18036,30.66896 45.81345,31.76901 22.86627,1.68789 45.26111,-15.18959 50.37703,-37.4519 5.32192,-21.03751 -5.03146,-45.17415 -24.57561,-54.97823 -7.9823,-4.26202 -17.12225,-6.3396 -26.16403,-5.85236 z" />
    <path
       id="circle11301"
       style="fill:#fb5be3;stroke-width:0.876781"
       d="m 894.47656,342.91992 c -24.90822,0.17584 -47.45918,22.42615 -47.55468,47.41797 -0.86136,21.98653 14.6678,43.86896 36.2951,49.03553 19.11002,5.24918 41.26425,-2.14742 52.56559,-18.63616 11.31692,-15.57131 12.62069,-38.02405 2.10716,-54.34869 -8.99655,-14.70416 -26.08638,-24.30486 -43.41317,-23.46865 z" />
    <circle
       r="51.635448"
       cx="896"
       cy="504"
       fill="#d85bfb"
       id="circle11303"
       style="stroke-width:0.922059" />
    <circle
       r="48.884426"
       cx="896"
       cy="616"
       fill="#905bfb"
       id="circle11305"
       style="stroke-width:0.872935" />
    <circle
       r="47.349945"
       cx="896"
       cy="728"
       fill="#fb5bb0"
       id="circle11307"
       style="stroke-width:0.845537" />
    <circle
       r="53.115311"
       cx="896"
       cy="840"
       fill="#ab5bfb"
       id="circle11309"
       style="stroke-width:0.948489" />
    <path
       id="circle20173"
       style="fill:#5d5bfb;stroke-width:0.946824"
       d="m 782.58594,115.9375 c -26.83333,0.51288 -49.58252,25.70509 -49.2226,52.19351 -0.90563,21.89006 7.8568,44.89817 25.63103,58.32387 4.47197,2.87697 9.21146,5.46867 14.34157,6.94551 9.49819,-5.71105 20.42387,-8.6782 29.65625,-14.91016 15.26495,-9.72013 28.32977,-24.82866 31.23924,-43.15414 3.49327,-20.45457 -6.44188,-42.81957 -24.82909,-52.86148 -8.12751,-4.55576 -17.50889,-6.81096 -26.8164,-6.53711 z" />
    <path
       id="circle20175"
       style="fill:#7b5bfb;stroke-width:0.935514"
       d="m 669.18555,115.66602 c -26.99116,0.85682 -50.9743,26.09517 -49.35938,53.26367 0.81236,23.75597 18.6063,44.96594 40.86217,52.23657 15.91191,5.85791 34.74376,6.70307 49.82461,-1.94601 11.37411,-7.19652 16.18061,-21.13309 16.64408,-34.03261 1.51913,-22.75964 -7.65144,-46.97287 -26.50273,-60.5392 -9.13481,-6.34007 -20.38529,-9.41208 -31.46875,-8.98242 z" />
    <path
       id="circle20177"
       style="fill:#7b5bfb;stroke-width:0.935514"
       d="m 669.18555,115.66602 c -26.99116,0.85682 -50.9743,26.09517 -49.35938,53.26367 0.81236,23.75597 18.6063,44.96594 40.86217,52.23657 15.91191,5.85791 34.74376,6.70307 49.82461,-1.94601 11.37411,-7.19652 16.18061,-21.13309 16.64408,-34.03261 1.51913,-22.75964 -7.65144,-46.97287 -26.50273,-60.5392 -9.13481,-6.34007 -20.38529,-9.41208 -31.46875,-8.98242 z" />
    <path
       id="circle20179"
       style="fill:#7b5bfb;stroke-width:0.935514"
       d="m 669.18555,115.66602 c -26.99116,0.85682 -50.9743,26.09517 -49.35938,53.26367 0.81236,23.75597 18.6063,44.96594 40.86217,52.23657 15.91191,5.85791 34.74376,6.70307 49.82461,-1.94601 11.37411,-7.19652 16.18061,-21.13309 16.64408,-34.03261 1.51913,-22.75964 -7.65144,-46.97287 -26.50273,-60.5392 -9.13481,-6.34007 -20.38529,-9.41208 -31.46875,-8.98242 z" />
    <path
       id="circle20181"
       style="fill:#7b5bfb;stroke-width:0.935514"
       d="m 669.18555,115.66602 c -26.99116,0.85682 -50.9743,26.09517 -49.35938,53.26367 0.81236,23.75597 18.6063,44.96594 40.86217,52.23657 15.91191,5.85791 34.74376,6.70307 49.82461,-1.94601 11.37411,-7.19652 16.18061,-21.13309 16.64408,-34.03261 1.51913,-22.75964 -7.65144,-46.97287 -26.50273,-60.5392 -9.13481,-6.34007 -20.38529,-9.41208 -31.46875,-8.98242 z" />
    <path
       id="circle20183"
       style="fill:#7b5bfb;stroke-width:0.935514"
       d="m 669.18555,115.66602 c -26.99116,0.85682 -50.9743,26.09517 -49.35938,53.26367 0.81236,23.75597 18.6063,44.96594 40.86217,52.23657 15.91191,5.85791 34.74376,6.70307 49.82461,-1.94601 11.37411,-7.19652 16.18061,-21.13309 16.64408,-34.03261 1.51913,-22.75964 -7.65144,-46.97287 -26.50273,-60.5392 -9.13481,-6.34007 -20.38529,-9.41208 -31.46875,-8.98242 z" />
    <path
       id="circle20185"
       style="fill:#7b5bfb;stroke-width:0.935514"
       d="m 669.18555,115.66602 c -26.99116,0.85682 -50.9743,26.09517 -49.35938,53.26367 0.81236,23.75597 18.6063,44.96594 40.86217,52.23657 15.91191,5.85791 34.74376,6.70307 49.82461,-1.94601 11.37411,-7.19652 16.18061,-21.13309 16.64408,-34.03261 1.51913,-22.75964 -7.65144,-46.97287 -26.50273,-60.5392 -9.13481,-6.34007 -20.38529,-9.41208 -31.46875,-8.98242 z" />
    <path
       id="circle20187"
       style="fill:#5d5bfb;stroke-width:0.946824"
       d="m 782.58594,115.9375 c -26.83333,0.51288 -49.58252,25.70509 -49.2226,52.19351 -0.90563,21.89006 7.8568,44.89817 25.63103,58.32387 4.47197,2.87697 9.21146,5.46867 14.34157,6.94551 9.49819,-5.71105 20.42387,-8.6782 29.65625,-14.91016 15.26495,-9.72013 28.32977,-24.82866 31.23924,-43.15414 3.49327,-20.45457 -6.44188,-42.81957 -24.82909,-52.86148 -8.12751,-4.55576 -17.50889,-6.81096 -26.8164,-6.53711 z" />
    <path
       id="circle20189"
       style="fill:#fb5ba3;stroke-width:0.730165"
       d="m 676.57812,243.03711 c -17.78287,0.11452 -35.75415,12.40782 -39.75291,30.19059 -5.07119,20.11401 12.60138,42.10465 33.2905,41.68987 18.68687,0.19746 35.68412,-12.12989 44.5546,-28.0503 2.95212,-6.22305 6.97001,-12.25208 7.78935,-19.231 0.57288,-3.30809 -1.0019,-6.31264 -3.27802,-8.60502 -6.68891,-7.31306 -16.29033,-10.9972 -25.50327,-13.98295 -5.57185,-1.44958 -11.34215,-2.15646 -17.10025,-2.01119 z" />
    <path
       id="circle20191"
       style="fill:#7b5bfb;stroke-width:0.935514"
       d="m 669.18555,115.66602 c -26.99116,0.85682 -50.9743,26.09517 -49.35938,53.26367 0.81236,23.75597 18.6063,44.96594 40.86217,52.23657 15.91191,5.85791 34.74376,6.70307 49.82461,-1.94601 11.37411,-7.19652 16.18061,-21.13309 16.64408,-34.03261 1.51913,-22.75964 -7.65144,-46.97287 -26.50273,-60.5392 -9.13481,-6.34007 -20.38529,-9.41208 -31.46875,-8.98242 z" />
    <path
       id="circle20193"
       style="fill:#fb5ba3;stroke-width:0.730165"
       d="m 676.57812,243.03711 c -17.78287,0.11452 -35.75415,12.40782 -39.75291,30.19059 -5.07119,20.11401 12.60138,42.10465 33.2905,41.68987 18.68687,0.19746 35.68412,-12.12989 44.5546,-28.0503 2.95212,-6.22305 6.97001,-12.25208 7.78935,-19.231 0.57288,-3.30809 -1.0019,-6.31264 -3.27802,-8.60502 -6.68891,-7.31306 -16.29033,-10.9972 -25.50327,-13.98295 -5.57185,-1.44958 -11.34215,-2.15646 -17.10025,-2.01119 z" />
    <path
       id="circle20195"
       style="fill:#fb5ba3;stroke-width:0.730165"
       d="m 676.57812,243.03711 c -17.78287,0.11452 -35.75415,12.40782 -39.75291,30.19059 -5.07119,20.11401 12.60138,42.10465 33.2905,41.68987 18.68687,0.19746 35.68412,-12.12989 44.5546,-28.0503 2.95212,-6.22305 6.97001,-12.25208 7.78935,-19.231 0.57288,-3.30809 -1.0019,-6.31264 -3.27802,-8.60502 -6.68891,-7.31306 -16.29033,-10.9972 -25.50327,-13.98295 -5.57185,-1.44958 -11.34215,-2.15646 -17.10025,-2.01119 z" />
    <path
       id="circle20197"
       style="fill:#fb5ba3;stroke-width:0.730165"
       d="m 676.57812,243.03711 c -17.78287,0.11452 -35.75415,12.40782 -39.75291,30.19059 -5.07119,20.11401 12.60138,42.10465 33.2905,41.68987 18.68687,0.19746 35.68412,-12.12989 44.5546,-28.0503 2.95212,-6.22305 6.97001,-12.25208 7.78935,-19.231 0.57288,-3.30809 -1.0019,-6.31264 -3.27802,-8.60502 -6.68891,-7.31306 -16.29033,-10.9972 -25.50327,-13.98295 -5.57185,-1.44958 -11.34215,-2.15646 -17.10025,-2.01119 z" />
    <path
       id="circle20199"
       style="fill:#fb5ba3;stroke-width:0.730165"
       d="m 676.57812,243.03711 c -17.78287,0.11452 -35.75415,12.40782 -39.75291,30.19059 -5.07119,20.11401 12.60138,42.10465 33.2905,41.68987 18.68687,0.19746 35.68412,-12.12989 44.5546,-28.0503 2.95212,-6.22305 6.97001,-12.25208 7.78935,-19.231 0.57288,-3.30809 -1.0019,-6.31264 -3.27802,-8.60502 -6.68891,-7.31306 -16.29033,-10.9972 -25.50327,-13.98295 -5.57185,-1.44958 -11.34215,-2.15646 -17.10025,-2.01119 z" />
    <path
       id="circle20201"
       style="fill:#fb5ba3;stroke-width:0.730165"
       d="m 676.57812,243.03711 c -17.78287,0.11452 -35.75415,12.40782 -39.75291,30.19059 -5.07119,20.11401 12.60138,42.10465 33.2905,41.68987 18.68687,0.19746 35.68412,-12.12989 44.5546,-28.0503 2.95212,-6.22305 6.97001,-12.25208 7.78935,-19.231 0.57288,-3.30809 -1.0019,-6.31264 -3.27802,-8.60502 -6.68891,-7.31306 -16.29033,-10.9972 -25.50327,-13.98295 -5.57185,-1.44958 -11.34215,-2.15646 -17.10025,-2.01119 z" />
    <path
       id="circle20203"
       style="fill:#5b6dfb;stroke-width:0.982639"
       d="m 558.90039,448.97266 c -26.32045,0.0809 -50.83677,21.79329 -53.487,48.09744 -2.89133,22.18687 8.97864,45.79961 29.22798,55.73454 18.50952,9.67331 42.63217,7.92792 59.00121,-5.29487 16.36689,-12.60368 24.94633,-34.85258 20.13401,-55.10194 -4.10897,-19.34921 -19.26517,-36.0922 -38.49367,-41.23774 -5.31028,-1.54406 -10.85226,-2.29668 -16.38253,-2.19743 z" />
    <path
       id="circle20205"
       style="fill:#fb5ba3;stroke-width:0.730165"
       d="m 676.57812,243.03711 c -17.78287,0.11452 -35.75415,12.40782 -39.75291,30.19059 -5.07119,20.11401 12.60138,42.10465 33.2905,41.68987 18.68687,0.19746 35.68412,-12.12989 44.5546,-28.0503 2.95212,-6.22305 6.97001,-12.25208 7.78935,-19.231 0.57288,-3.30809 -1.0019,-6.31264 -3.27802,-8.60502 -6.68891,-7.31306 -16.29033,-10.9972 -25.50327,-13.98295 -5.57185,-1.44958 -11.34215,-2.15646 -17.10025,-2.01119 z" />
    <path
       id="circle20207"
       style="fill:#5b6dfb;stroke-width:0.982639"
       d="m 558.90039,448.97266 c -26.32045,0.0809 -50.83677,21.79329 -53.487,48.09744 -2.89133,22.18687 8.97864,45.79961 29.22798,55.73454 18.50952,9.67331 42.63217,7.92792 59.00121,-5.29487 16.36689,-12.60368 24.94633,-34.85258 20.13401,-55.10194 -4.10897,-19.34921 -19.26517,-36.0922 -38.49367,-41.23774 -5.31028,-1.54406 -10.85226,-2.29668 -16.38253,-2.19743 z" />
    <path
       id="circle20209"
       style="fill:#5b6bfb;stroke-width:0.876693"
       d="m 676.62305,338.27148 c -27.12966,0.81775 -52.12052,24.04704 -53.46289,51.41993 -1.43932,23.70888 16.796,47.41748 40.60794,50.64944 21.77319,3.91333 45.90842,-8.811 53.41533,-29.9465 9.22382,-23.49373 0.6666,-53.30296 -20.93685,-66.93925 -5.89672,-3.48661 -12.75723,-5.40756 -19.62353,-5.18362 z" />
    <path
       id="circle20211"
       style="fill:#5d5bfb;stroke-width:0.989389"
       d="m 558.66992,336.50781 c -23.88986,0.85772 -47.23313,17.09392 -54.35577,40.25038 -5.26681,18.41544 1.71779,38.61609 14.42413,52.3629 12.92717,14.5576 33.86487,21.30773 52.84887,16.98144 17.26682,-3.59764 32.57993,-15.80782 39.29965,-32.20427 8.94553,-20.45164 5.04112,-46.64108 -11.56589,-62.10192 -10.73969,-10.31421 -25.80396,-15.84471 -40.65099,-15.28853 z" />
    <path
       id="circle20213"
       style="fill:#5d5bfb;stroke-width:0.989389"
       d="m 558.66992,336.50781 c -23.88986,0.85772 -47.23313,17.09392 -54.35577,40.25038 -5.26681,18.41544 1.71779,38.61609 14.42413,52.3629 12.92717,14.5576 33.86487,21.30773 52.84887,16.98144 17.26682,-3.59764 32.57993,-15.80782 39.29965,-32.20427 8.94553,-20.45164 5.04112,-46.64108 -11.56589,-62.10192 -10.73969,-10.31421 -25.80396,-15.84471 -40.65099,-15.28853 z" />
    <path
       id="circle20215"
       style="fill:#5d5bfb;stroke-width:0.989389"
       d="m 558.66992,336.50781 c -23.88986,0.85772 -47.23313,17.09392 -54.35577,40.25038 -5.26681,18.41544 1.71779,38.61609 14.42413,52.3629 12.92717,14.5576 33.86487,21.30773 52.84887,16.98144 17.26682,-3.59764 32.57993,-15.80782 39.29965,-32.20427 8.94553,-20.45164 5.04112,-46.64108 -11.56589,-62.10192 -10.73969,-10.31421 -25.80396,-15.84471 -40.65099,-15.28853 z" />
    <path
       id="circle20217"
       style="fill:#5d5bfb;stroke-width:0.989389"
       d="m 558.66992,336.50781 c -23.88986,0.85772 -47.23313,17.09392 -54.35577,40.25038 -5.26681,18.41544 1.71779,38.61609 14.42413,52.3629 12.92717,14.5576 33.86487,21.30773 52.84887,16.98144 17.26682,-3.59764 32.57993,-15.80782 39.29965,-32.20427 8.94553,-20.45164 5.04112,-46.64108 -11.56589,-62.10192 -10.73969,-10.31421 -25.80396,-15.84471 -40.65099,-15.28853 z" />
    <path
       id="circle20219"
       style="fill:#5d5bfb;stroke-width:0.989389"
       d="m 558.66992,336.50781 c -23.88986,0.85772 -47.23313,17.09392 -54.35577,40.25038 -5.26681,18.41544 1.71779,38.61609 14.42413,52.3629 12.92717,14.5576 33.86487,21.30773 52.84887,16.98144 17.26682,-3.59764 32.57993,-15.80782 39.29965,-32.20427 8.94553,-20.45164 5.04112,-46.64108 -11.56589,-62.10192 -10.73969,-10.31421 -25.80396,-15.84471 -40.65099,-15.28853 z" />
    <path
       id="circle20221"
       style="fill:#fb5ba3;stroke-width:0.730165"
       d="m 676.57812,243.03711 c -17.78287,0.11452 -35.75415,12.40782 -39.75291,30.19059 -5.07119,20.11401 12.60138,42.10465 33.2905,41.68987 18.68687,0.19746 35.68412,-12.12989 44.5546,-28.0503 2.95212,-6.22305 6.97001,-12.25208 7.78935,-19.231 0.57288,-3.30809 -1.0019,-6.31264 -3.27802,-8.60502 -6.68891,-7.31306 -16.29033,-10.9972 -25.50327,-13.98295 -5.57185,-1.44958 -11.34215,-2.15646 -17.10025,-2.01119 z" />
    <path
       id="circle20223"
       style="fill:#5b6bfb;stroke-width:0.876693"
       d="m 676.62305,338.27148 c -27.12966,0.81775 -52.12052,24.04704 -53.46289,51.41993 -1.43932,23.70888 16.796,47.41748 40.60794,50.64944 21.77319,3.91333 45.90842,-8.811 53.41533,-29.9465 9.22382,-23.49373 0.6666,-53.30296 -20.93685,-66.93925 -5.89672,-3.48661 -12.75723,-5.40756 -19.62353,-5.18362 z" />
    <path
       id="circle20225"
       style="fill:#fb5ba3;stroke-width:0.730165"
       d="m 676.57812,243.03711 c -17.78287,0.11452 -35.75415,12.40782 -39.75291,30.19059 -5.07119,20.11401 12.60138,42.10465 33.2905,41.68987 18.68687,0.19746 35.68412,-12.12989 44.5546,-28.0503 2.95212,-6.22305 6.97001,-12.25208 7.78935,-19.231 0.57288,-3.30809 -1.0019,-6.31264 -3.27802,-8.60502 -6.68891,-7.31306 -16.29033,-10.9972 -25.50327,-13.98295 -5.57185,-1.44958 -11.34215,-2.15646 -17.10025,-2.01119 z" />
    <path
       id="circle20227"
       style="fill:#fb5ba3;stroke-width:0.730165"
       d="m 676.57812,243.03711 c -17.78287,0.11452 -35.75415,12.40782 -39.75291,30.19059 -5.07119,20.11401 12.60138,42.10465 33.2905,41.68987 18.68687,0.19746 35.68412,-12.12989 44.5546,-28.0503 2.95212,-6.22305 6.97001,-12.25208 7.78935,-19.231 0.57288,-3.30809 -1.0019,-6.31264 -3.27802,-8.60502 -6.68891,-7.31306 -16.29033,-10.9972 -25.50327,-13.98295 -5.57185,-1.44958 -11.34215,-2.15646 -17.10025,-2.01119 z" />
    <path
       id="circle20229"
       style="fill:#fb5ba3;stroke-width:0.730165"
       d="m 676.57812,243.03711 c -17.78287,0.11452 -35.75415,12.40782 -39.75291,30.19059 -5.07119,20.11401 12.60138,42.10465 33.2905,41.68987 18.68687,0.19746 35.68412,-12.12989 44.5546,-28.0503 2.95212,-6.22305 6.97001,-12.25208 7.78935,-19.231 0.57288,-3.30809 -1.0019,-6.31264 -3.27802,-8.60502 -6.68891,-7.31306 -16.29033,-10.9972 -25.50327,-13.98295 -5.57185,-1.44958 -11.34215,-2.15646 -17.10025,-2.01119 z" />
    <path
       id="circle20231"
       style="fill:#5d5bfb;stroke-width:0.989389"
       d="m 558.66992,336.50781 c -23.88986,0.85772 -47.23313,17.09392 -54.35577,40.25038 -5.26681,18.41544 1.71779,38.61609 14.42413,52.3629 12.92717,14.5576 33.86487,21.30773 52.84887,16.98144 17.26682,-3.59764 32.57993,-15.80782 39.29965,-32.20427 8.94553,-20.45164 5.04112,-46.64108 -11.56589,-62.10192 -10.73969,-10.31421 -25.80396,-15.84471 -40.65099,-15.28853 z" />
    <path
       id="circle20233"
       style="fill:#5b6bfb;stroke-width:0.876693"
       d="m 676.62305,338.27148 c -27.12966,0.81775 -52.12052,24.04704 -53.46289,51.41993 -1.43932,23.70888 16.796,47.41748 40.60794,50.64944 21.77319,3.91333 45.90842,-8.811 53.41533,-29.9465 9.22382,-23.49373 0.6666,-53.30296 -20.93685,-66.93925 -5.89672,-3.48661 -12.75723,-5.40756 -19.62353,-5.18362 z" />
    <path
       id="circle20235"
       style="fill:#fb5ba3;stroke-width:0.730165"
       d="m 676.57812,243.03711 c -17.78287,0.11452 -35.75415,12.40782 -39.75291,30.19059 -5.07119,20.11401 12.60138,42.10465 33.2905,41.68987 18.68687,0.19746 35.68412,-12.12989 44.5546,-28.0503 2.95212,-6.22305 6.97001,-12.25208 7.78935,-19.231 0.57288,-3.30809 -1.0019,-6.31264 -3.27802,-8.60502 -6.68891,-7.31306 -16.29033,-10.9972 -25.50327,-13.98295 -5.57185,-1.44958 -11.34215,-2.15646 -17.10025,-2.01119 z" />
    <path
       id="circle20237"
       style="fill:#5b6bfb;stroke-width:0.876693"
       d="m 676.62305,338.27148 c -27.12966,0.81775 -52.12052,24.04704 -53.46289,51.41993 -1.43932,23.70888 16.796,47.41748 40.60794,50.64944 21.77319,3.91333 45.90842,-8.811 53.41533,-29.9465 9.22382,-23.49373 0.6666,-53.30296 -20.93685,-66.93925 -5.89672,-3.48661 -12.75723,-5.40756 -19.62353,-5.18362 z" />
    <path
       id="circle20239"
       style="fill:#fb5ba3;stroke-width:0.730165"
       d="m 676.57812,243.03711 c -17.78287,0.11452 -35.75415,12.40782 -39.75291,30.19059 -5.07119,20.11401 12.60138,42.10465 33.2905,41.68987 18.68687,0.19746 35.68412,-12.12989 44.5546,-28.0503 2.95212,-6.22305 6.97001,-12.25208 7.78935,-19.231 0.57288,-3.30809 -1.0019,-6.31264 -3.27802,-8.60502 -6.68891,-7.31306 -16.29033,-10.9972 -25.50327,-13.98295 -5.57185,-1.44958 -11.34215,-2.15646 -17.10025,-2.01119 z" />
    <path
       id="circle20241"
       style="fill:#fb5be3;stroke-width:0.917321"
       d="m 775.75,334.9375 c -15.24679,0.94376 -28.12342,11.90746 -35.40667,24.77296 -11.8529,20.46852 -10.44355,48.5267 5.35208,66.55966 17.40417,20.37235 51.66924,22.78205 71.65567,4.89239 17.69683,-15.01481 23.65263,-42.85272 11.93075,-63.22482 C 818.87115,348.76238 797.98245,334.46626 775.75,334.9375 Z" />
    <path
       id="circle20243"
       style="fill:#fb5ba3;stroke-width:0.730165"
       d="m 676.57812,243.03711 c -17.78287,0.11452 -35.75415,12.40782 -39.75291,30.19059 -5.07119,20.11401 12.60138,42.10465 33.2905,41.68987 18.68687,0.19746 35.68412,-12.12989 44.5546,-28.0503 2.95212,-6.22305 6.97001,-12.25208 7.78935,-19.231 0.57288,-3.30809 -1.0019,-6.31264 -3.27802,-8.60502 -6.68891,-7.31306 -16.29033,-10.9972 -25.50327,-13.98295 -5.57185,-1.44958 -11.34215,-2.15646 -17.10025,-2.01119 z" />
    <path
       id="circle20245"
       style="fill:#5d5bfb;stroke-width:0.989389"
       d="m 558.66992,336.50781 c -23.88986,0.85772 -47.23313,17.09392 -54.35577,40.25038 -5.26681,18.41544 1.71779,38.61609 14.42413,52.3629 12.92717,14.5576 33.86487,21.30773 52.84887,16.98144 17.26682,-3.59764 32.57993,-15.80782 39.29965,-32.20427 8.94553,-20.45164 5.04112,-46.64108 -11.56589,-62.10192 -10.73969,-10.31421 -25.80396,-15.84471 -40.65099,-15.28853 z" />
    <path
       id="circle20247"
       style="fill:#5b6bfb;stroke-width:0.876693"
       d="m 676.62305,338.27148 c -27.12966,0.81775 -52.12052,24.04704 -53.46289,51.41993 -1.43932,23.70888 16.796,47.41748 40.60794,50.64944 21.77319,3.91333 45.90842,-8.811 53.41533,-29.9465 9.22382,-23.49373 0.6666,-53.30296 -20.93685,-66.93925 -5.89672,-3.48661 -12.75723,-5.40756 -19.62353,-5.18362 z" />
    <path
       id="circle20249"
       style="fill:#5b6bfb;stroke-width:0.876693"
       d="m 676.62305,338.27148 c -27.12966,0.81775 -52.12052,24.04704 -53.46289,51.41993 -1.43932,23.70888 16.796,47.41748 40.60794,50.64944 21.77319,3.91333 45.90842,-8.811 53.41533,-29.9465 9.22382,-23.49373 0.6666,-53.30296 -20.93685,-66.93925 -5.89672,-3.48661 -12.75723,-5.40756 -19.62353,-5.18362 z" />
    <path
       id="circle20251"
       style="fill:#fb5ba3;stroke-width:0.730165"
       d="m 676.57812,243.03711 c -17.78287,0.11452 -35.75415,12.40782 -39.75291,30.19059 -5.07119,20.11401 12.60138,42.10465 33.2905,41.68987 18.68687,0.19746 35.68412,-12.12989 44.5546,-28.0503 2.95212,-6.22305 6.97001,-12.25208 7.78935,-19.231 0.57288,-3.30809 -1.0019,-6.31264 -3.27802,-8.60502 -6.68891,-7.31306 -16.29033,-10.9972 -25.50327,-13.98295 -5.57185,-1.44958 -11.34215,-2.15646 -17.10025,-2.01119 z" />
    <path
       id="circle20253"
       style="fill:#fb5ba3;stroke-width:0.730165"
       d="m 676.57812,243.03711 c -17.78287,0.11452 -35.75415,12.40782 -39.75291,30.19059 -5.07119,20.11401 12.60138,42.10465 33.2905,41.68987 18.68687,0.19746 35.68412,-12.12989 44.5546,-28.0503 2.95212,-6.22305 6.97001,-12.25208 7.78935,-19.231 0.57288,-3.30809 -1.0019,-6.31264 -3.27802,-8.60502 -6.68891,-7.31306 -16.29033,-10.9972 -25.50327,-13.98295 -5.57185,-1.44958 -11.34215,-2.15646 -17.10025,-2.01119 z" />
    <path
       id="circle20255"
       style="fill:#fb5ba3;stroke-width:0.730165"
       d="m 676.57812,243.03711 c -17.78287,0.11452 -35.75415,12.40782 -39.75291,30.19059 -5.07119,20.11401 12.60138,42.10465 33.2905,41.68987 18.68687,0.19746 35.68412,-12.12989 44.5546,-28.0503 2.95212,-6.22305 6.97001,-12.25208 7.78935,-19.231 0.57288,-3.30809 -1.0019,-6.31264 -3.27802,-8.60502 -6.68891,-7.31306 -16.29033,-10.9972 -25.50327,-13.98295 -5.57185,-1.44958 -11.34215,-2.15646 -17.10025,-2.01119 z" />
    <path
       id="circle20257"
       style="fill:#fb5ba3;stroke-width:0.730165"
       d="m 676.57812,243.03711 c -17.78287,0.11452 -35.75415,12.40782 -39.75291,30.19059 -5.07119,20.11401 12.60138,42.10465 33.2905,41.68987 18.68687,0.19746 35.68412,-12.12989 44.5546,-28.0503 2.95212,-6.22305 6.97001,-12.25208 7.78935,-19.231 0.57288,-3.30809 -1.0019,-6.31264 -3.27802,-8.60502 -6.68891,-7.31306 -16.29033,-10.9972 -25.50327,-13.98295 -5.57185,-1.44958 -11.34215,-2.15646 -17.10025,-2.01119 z" />
    <path
       id="circle20259"
       style="fill:#5d5bfb;stroke-width:0.989389"
       d="m 558.66992,336.50781 c -23.88986,0.85772 -47.23313,17.09392 -54.35577,40.25038 -5.26681,18.41544 1.71779,38.61609 14.42413,52.3629 12.92717,14.5576 33.86487,21.30773 52.84887,16.98144 17.26682,-3.59764 32.57993,-15.80782 39.29965,-32.20427 8.94553,-20.45164 5.04112,-46.64108 -11.56589,-62.10192 -10.73969,-10.31421 -25.80396,-15.84471 -40.65099,-15.28853 z" />
    <path
       id="circle20261"
       style="fill:#fb5ba3;stroke-width:0.730165"
       d="m 676.57812,243.03711 c -17.78287,0.11452 -35.75415,12.40782 -39.75291,30.19059 -5.07119,20.11401 12.60138,42.10465 33.2905,41.68987 18.68687,0.19746 35.68412,-12.12989 44.5546,-28.0503 2.95212,-6.22305 6.97001,-12.25208 7.78935,-19.231 0.57288,-3.30809 -1.0019,-6.31264 -3.27802,-8.60502 -6.68891,-7.31306 -16.29033,-10.9972 -25.50327,-13.98295 -5.57185,-1.44958 -11.34215,-2.15646 -17.10025,-2.01119 z" />
    <path
       id="circle20263"
       style="fill:#5b6bfb;stroke-width:0.876693"
       d="m 676.62305,338.27148 c -27.12966,0.81775 -52.12052,24.04704 -53.46289,51.41993 -1.43932,23.70888 16.796,47.41748 40.60794,50.64944 21.77319,3.91333 45.90842,-8.811 53.41533,-29.9465 9.22382,-23.49373 0.6666,-53.30296 -20.93685,-66.93925 -5.89672,-3.48661 -12.75723,-5.40756 -19.62353,-5.18362 z" />
    <path
       id="circle20265"
       style="fill:#5b6bfb;stroke-width:0.876693"
       d="m 676.62305,338.27148 c -27.12966,0.81775 -52.12052,24.04704 -53.46289,51.41993 -1.43932,23.70888 16.796,47.41748 40.60794,50.64944 21.77319,3.91333 45.90842,-8.811 53.41533,-29.9465 9.22382,-23.49373 0.6666,-53.30296 -20.93685,-66.93925 -5.89672,-3.48661 -12.75723,-5.40756 -19.62353,-5.18362 z" />
    <path
       id="circle20267"
       style="fill:#5b6bfb;stroke-width:0.876693"
       d="m 676.62305,338.27148 c -27.12966,0.81775 -52.12052,24.04704 -53.46289,51.41993 -1.43932,23.70888 16.796,47.41748 40.60794,50.64944 21.77319,3.91333 45.90842,-8.811 53.41533,-29.9465 9.22382,-23.49373 0.6666,-53.30296 -20.93685,-66.93925 -5.89672,-3.48661 -12.75723,-5.40756 -19.62353,-5.18362 z" />
    <path
       id="circle20269"
       style="fill:#5b6bfb;stroke-width:0.876693"
       d="m 676.62305,338.27148 c -27.12966,0.81775 -52.12052,24.04704 -53.46289,51.41993 -1.43932,23.70888 16.796,47.41748 40.60794,50.64944 21.77319,3.91333 45.90842,-8.811 53.41533,-29.9465 9.22382,-23.49373 0.6666,-53.30296 -20.93685,-66.93925 -5.89672,-3.48661 -12.75723,-5.40756 -19.62353,-5.18362 z" />
    <path
       id="circle20271"
       style="fill:#5d5bfb;stroke-width:0.989389"
       d="m 558.66992,336.50781 c -23.88986,0.85772 -47.23313,17.09392 -54.35577,40.25038 -5.26681,18.41544 1.71779,38.61609 14.42413,52.3629 12.92717,14.5576 33.86487,21.30773 52.84887,16.98144 17.26682,-3.59764 32.57993,-15.80782 39.29965,-32.20427 8.94553,-20.45164 5.04112,-46.64108 -11.56589,-62.10192 -10.73969,-10.31421 -25.80396,-15.84471 -40.65099,-15.28853 z" />
    <path
       id="circle20273"
       style="fill:#5b6bfb;stroke-width:0.876693"
       d="m 676.62305,338.27148 c -27.12966,0.81775 -52.12052,24.04704 -53.46289,51.41993 -1.43932,23.70888 16.796,47.41748 40.60794,50.64944 21.77319,3.91333 45.90842,-8.811 53.41533,-29.9465 9.22382,-23.49373 0.6666,-53.30296 -20.93685,-66.93925 -5.89672,-3.48661 -12.75723,-5.40756 -19.62353,-5.18362 z" />
    <path
       id="circle20275"
       style="fill:#5b6bfb;stroke-width:0.876693"
       d="m 676.62305,338.27148 c -27.12966,0.81775 -52.12052,24.04704 -53.46289,51.41993 -1.43932,23.70888 16.796,47.41748 40.60794,50.64944 21.77319,3.91333 45.90842,-8.811 53.41533,-29.9465 9.22382,-23.49373 0.6666,-53.30296 -20.93685,-66.93925 -5.89672,-3.48661 -12.75723,-5.40756 -19.62353,-5.18362 z" />
    <path
       id="circle20277"
       style="fill:#5b6bfb;stroke-width:0.876693"
       d="m 676.62305,338.27148 c -27.12966,0.81775 -52.12052,24.04704 -53.46289,51.41993 -1.43932,23.70888 16.796,47.41748 40.60794,50.64944 21.77319,3.91333 45.90842,-8.811 53.41533,-29.9465 9.22382,-23.49373 0.6666,-53.30296 -20.93685,-66.93925 -5.89672,-3.48661 -12.75723,-5.40756 -19.62353,-5.18362 z" />
    <path
       id="circle20279"
       style="fill:#5b6bfb;stroke-width:0.876693"
       d="m 676.62305,338.27148 c -27.12966,0.81775 -52.12052,24.04704 -53.46289,51.41993 -1.43932,23.70888 16.796,47.41748 40.60794,50.64944 21.77319,3.91333 45.90842,-8.811 53.41533,-29.9465 9.22382,-23.49373 0.6666,-53.30296 -20.93685,-66.93925 -5.89672,-3.48661 -12.75723,-5.40756 -19.62353,-5.18362 z" />
    <path
       id="circle20281"
       style="fill:#5b6bfb;stroke-width:0.876693"
       d="m 676.62305,338.27148 c -27.12966,0.81775 -52.12052,24.04704 -53.46289,51.41993 -1.43932,23.70888 16.796,47.41748 40.60794,50.64944 21.77319,3.91333 45.90842,-8.811 53.41533,-29.9465 9.22382,-23.49373 0.6666,-53.30296 -20.93685,-66.93925 -5.89672,-3.48661 -12.75723,-5.40756 -19.62353,-5.18362 z" />
    <path
       id="circle20283"
       style="fill:#5b6bfb;stroke-width:0.876693"
       d="m 676.62305,338.27148 c -27.12966,0.81775 -52.12052,24.04704 -53.46289,51.41993 -1.43932,23.70888 16.796,47.41748 40.60794,50.64944 21.77319,3.91333 45.90842,-8.811 53.41533,-29.9465 9.22382,-23.49373 0.6666,-53.30296 -20.93685,-66.93925 -5.89672,-3.48661 -12.75723,-5.40756 -19.62353,-5.18362 z" />
    <path
       id="circle20285"
       style="fill:#5d5bfb;stroke-width:0.989389"
       d="m 558.66992,336.50781 c -23.88986,0.85772 -47.23313,17.09392 -54.35577,40.25038 -5.26681,18.41544 1.71779,38.61609 14.42413,52.3629 12.92717,14.5576 33.86487,21.30773 52.84887,16.98144 17.26682,-3.59764 32.57993,-15.80782 39.29965,-32.20427 8.94553,-20.45164 5.04112,-46.64108 -11.56589,-62.10192 -10.73969,-10.31421 -25.80396,-15.84471 -40.65099,-15.28853 z" />
    <path
       id="circle20287"
       style="fill:#5b6bfb;stroke-width:0.876693"
       d="m 676.62305,338.27148 c -27.12966,0.81775 -52.12052,24.04704 -53.46289,51.41993 -1.43932,23.70888 16.796,47.41748 40.60794,50.64944 21.77319,3.91333 45.90842,-8.811 53.41533,-29.9465 9.22382,-23.49373 0.6666,-53.30296 -20.93685,-66.93925 -5.89672,-3.48661 -12.75723,-5.40756 -19.62353,-5.18362 z" />
    <path
       id="circle20289"
       style="fill:#5d5bfb;stroke-width:0.989389"
       d="m 558.66992,336.50781 c -23.88986,0.85772 -47.23313,17.09392 -54.35577,40.25038 -5.26681,18.41544 1.71779,38.61609 14.42413,52.3629 12.92717,14.5576 33.86487,21.30773 52.84887,16.98144 17.26682,-3.59764 32.57993,-15.80782 39.29965,-32.20427 8.94553,-20.45164 5.04112,-46.64108 -11.56589,-62.10192 -10.73969,-10.31421 -25.80396,-15.84471 -40.65099,-15.28853 z" />
    <path
       id="circle20291"
       style="fill:#5d5bfb;stroke-width:0.989389"
       d="m 558.66992,336.50781 c -23.88986,0.85772 -47.23313,17.09392 -54.35577,40.25038 -5.26681,18.41544 1.71779,38.61609 14.42413,52.3629 12.92717,14.5576 33.86487,21.30773 52.84887,16.98144 17.26682,-3.59764 32.57993,-15.80782 39.29965,-32.20427 8.94553,-20.45164 5.04112,-46.64108 -11.56589,-62.10192 -10.73969,-10.31421 -25.80396,-15.84471 -40.65099,-15.28853 z" />
    <path
       id="circle20293"
       style="fill:#5d5bfb;stroke-width:0.989389"
       d="m 558.66992,336.50781 c -23.88986,0.85772 -47.23313,17.09392 -54.35577,40.25038 -5.26681,18.41544 1.71779,38.61609 14.42413,52.3629 12.92717,14.5576 33.86487,21.30773 52.84887,16.98144 17.26682,-3.59764 32.57993,-15.80782 39.29965,-32.20427 8.94553,-20.45164 5.04112,-46.64108 -11.56589,-62.10192 -10.73969,-10.31421 -25.80396,-15.84471 -40.65099,-15.28853 z" />
    <path
       id="circle20295"
       style="fill:#5b6dfb;stroke-width:0.982639"
       d="m 558.90039,448.97266 c -26.32045,0.0809 -50.83677,21.79329 -53.487,48.09744 -2.89133,22.18687 8.97864,45.79961 29.22798,55.73454 18.50952,9.67331 42.63217,7.92792 59.00121,-5.29487 16.36689,-12.60368 24.94633,-34.85258 20.13401,-55.10194 -4.10897,-19.34921 -19.26517,-36.0922 -38.49367,-41.23774 -5.31028,-1.54406 -10.85226,-2.29668 -16.38253,-2.19743 z" />
    <path
       id="circle20297"
       style="fill:#5b6bfb;stroke-width:0.876693"
       d="m 676.62305,338.27148 c -27.12966,0.81775 -52.12052,24.04704 -53.46289,51.41993 -1.43932,23.70888 16.796,47.41748 40.60794,50.64944 21.77319,3.91333 45.90842,-8.811 53.41533,-29.9465 9.22382,-23.49373 0.6666,-53.30296 -20.93685,-66.93925 -5.89672,-3.48661 -12.75723,-5.40756 -19.62353,-5.18362 z" />
    <path
       id="circle20299"
       style="fill:#5d5bfb;stroke-width:0.989389"
       d="m 558.66992,336.50781 c -23.88986,0.85772 -47.23313,17.09392 -54.35577,40.25038 -5.26681,18.41544 1.71779,38.61609 14.42413,52.3629 12.92717,14.5576 33.86487,21.30773 52.84887,16.98144 17.26682,-3.59764 32.57993,-15.80782 39.29965,-32.20427 8.94553,-20.45164 5.04112,-46.64108 -11.56589,-62.10192 -10.73969,-10.31421 -25.80396,-15.84471 -40.65099,-15.28853 z" />
    <path
       id="circle20301"
       style="fill:#5d5bfb;stroke-width:0.989389"
       d="m 558.66992,336.50781 c -23.88986,0.85772 -47.23313,17.09392 -54.35577,40.25038 -5.26681,18.41544 1.71779,38.61609 14.42413,52.3629 12.92717,14.5576 33.86487,21.30773 52.84887,16.98144 17.26682,-3.59764 32.57993,-15.80782 39.29965,-32.20427 8.94553,-20.45164 5.04112,-46.64108 -11.56589,-62.10192 -10.73969,-10.31421 -25.80396,-15.84471 -40.65099,-15.28853 z" />
    <path
       id="circle20303"
       style="fill:#5d5bfb;stroke-width:0.989389"
       d="m 558.66992,336.50781 c -23.88986,0.85772 -47.23313,17.09392 -54.35577,40.25038 -5.26681,18.41544 1.71779,38.61609 14.42413,52.3629 12.92717,14.5576 33.86487,21.30773 52.84887,16.98144 17.26682,-3.59764 32.57993,-15.80782 39.29965,-32.20427 8.94553,-20.45164 5.04112,-46.64108 -11.56589,-62.10192 -10.73969,-10.31421 -25.80396,-15.84471 -40.65099,-15.28853 z" />
    <path
       id="circle20305"
       style="fill:#5d5bfb;stroke-width:0.989389"
       d="m 558.66992,336.50781 c -23.88986,0.85772 -47.23313,17.09392 -54.35577,40.25038 -5.26681,18.41544 1.71779,38.61609 14.42413,52.3629 12.92717,14.5576 33.86487,21.30773 52.84887,16.98144 17.26682,-3.59764 32.57993,-15.80782 39.29965,-32.20427 8.94553,-20.45164 5.04112,-46.64108 -11.56589,-62.10192 -10.73969,-10.31421 -25.80396,-15.84471 -40.65099,-15.28853 z" />
    <path
       id="circle20307"
       style="fill:#f35bfb;stroke-width:0.925817"
       d="M 234.70898 558.64648 C 208.08224 559.58122 182.16594 577.95703 174.75642 603.9365 C 166.71867 629.56063 184.45333 659.24661 210.24936 665.62003 C 236.05698 672.6271 264.952 655.79807 273.28114 630.74632 C 279.07003 614.2173 280.38827 595.11263 272.34708 579.0825 C 267.78148 570.02689 259.46142 562.82658 249.50312 560.46116 C 244.70449 559.09187 239.69319 558.52375 234.70898 558.64648 z " />
    <path
       id="circle20309"
       style="fill:#f35bfb;stroke-width:0.925817"
       d="M 234.70898 558.64648 C 208.08224 559.58122 182.16594 577.95703 174.75642 603.9365 C 166.71867 629.56063 184.45333 659.24661 210.24936 665.62003 C 236.05698 672.6271 264.952 655.79807 273.28114 630.74632 C 279.07003 614.2173 280.38827 595.11263 272.34708 579.0825 C 267.78148 570.02689 259.46142 562.82658 249.50312 560.46116 C 244.70449 559.09187 239.69319 558.52375 234.70898 558.64648 z " />
    <path
       id="circle20311"
       style="fill:#fb5bdb;stroke-width:0.953271"
       d="M 323.03906 561.13281 C 313.61941 561.39979 303.09011 563.35649 296.70516 570.90532 C 295.08131 573.25508 292.47654 574.84023 291.47852 577.66406 C 280.41511 598.89731 281.57184 626.29647 295.16992 646.13867 C 302.89681 657.67674 315.71675 665.44394 329.47474 667.15442 C 346.29898 669.62268 364.40527 663.52265 375.40039 650.33789 C 390.46886 632.7324 391.95866 604.42344 377.33203 586.09375 C 364.75808 569.52141 343.65441 560.44656 323.03906 561.13281 z " />
    <path
       id="circle20313"
       style="fill:#e65bfb;stroke-width:0.980594"
       d="M 444.89258 561.04492 C 422.34187 562.12621 400.41741 577.46911 393.54297 599.2832 C 386.04138 625.2071 400.72667 655.16568 425.26562 665.98438 C 446.35461 675.68206 473.61092 670.46545 488.82243 652.69076 C 503.95744 636.04241 507.56984 609.65602 496.33121 589.95886 C 486.72482 571.96897 466.56 560.09039 446.10082 561.02816 C 445.69807 561.03375 445.29533 561.03933 444.89258 561.04492 z " />
    <path
       id="circle20315"
       style="fill:#fb5bdb;stroke-width:0.953271"
       d="M 323.03906 561.13281 C 313.61941 561.39979 303.09011 563.35649 296.70516 570.90532 C 295.08131 573.25508 292.47654 574.84023 291.47852 577.66406 C 280.41511 598.89731 281.57184 626.29647 295.16992 646.13867 C 302.89681 657.67674 315.71675 665.44394 329.47474 667.15442 C 346.29898 669.62268 364.40527 663.52265 375.40039 650.33789 C 390.46886 632.7324 391.95866 604.42344 377.33203 586.09375 C 364.75808 569.52141 343.65441 560.44656 323.03906 561.13281 z " />
    <path
       id="circle20317"
       style="fill:#e65bfb;stroke-width:0.980594"
       d="M 444.89258 561.04492 C 422.34187 562.12621 400.41741 577.46911 393.54297 599.2832 C 386.04138 625.2071 400.72667 655.16568 425.26562 665.98438 C 446.35461 675.68206 473.61092 670.46545 488.82243 652.69076 C 503.95744 636.04241 507.56984 609.65602 496.33121 589.95886 C 486.72482 571.96897 466.56 560.09039 446.10082 561.02816 C 445.69807 561.03375 445.29533 561.03933 444.89258 561.04492 z " />
    <path
       id="circle20319"
       style="fill:#e65bfb;stroke-width:0.980594"
       d="M 444.89258 561.04492 C 422.34187 562.12621 400.41741 577.46911 393.54297 599.2832 C 386.04138 625.2071 400.72667 655.16568 425.26562 665.98438 C 446.35461 675.68206 473.61092 670.46545 488.82243 652.69076 C 503.95744 636.04241 507.56984 609.65602 496.33121 589.95886 C 486.72482 571.96897 466.56 560.09039 446.10082 561.02816 C 445.69807 561.03375 445.29533 561.03933 444.89258 561.04492 z " />
    <circle
       r="55.85799"
       cx="560"
       cy="728"
       fill="#fb5bfb"
       id="circle20321"
       style="stroke-width:0.997463" />
    <circle
       r="55.85799"
       cx="560"
       cy="728"
       fill="#fb5bfb"
       id="circle20323"
       style="stroke-width:0.997463" />
    <circle
       r="55.85799"
       cx="560"
       cy="728"
       fill="#fb5bfb"
       id="circle20325"
       style="stroke-width:0.997463" />
    <circle
       r="55.85799"
       cx="560"
       cy="728"
       fill="#fb5bfb"
       id="circle20327"
       style="stroke-width:0.997463" />
    <path
       id="circle20329"
       style="fill:#5b7bfb;stroke-width:0.956686"
       d="M 331.98242 673.15234 C 311.35245 674.12093 293.38405 689.50094 286.03886 708.3099 C 278.98833 725.96054 282.5022 747.09846 294.4927 761.77553 C 304.81003 775.075 321.89751 782.36027 338.60727 781.4263 C 354.35337 780.77108 369.6707 772.8618 378.91211 760.02148 C 390.51323 744.52947 393.12987 722.54534 384.40857 705.10142 C 375.35533 685.83541 354.63834 672.54379 333.24805 673.11719 C 332.82617 673.12891 332.4043 673.14062 331.98242 673.15234 z " />
    <circle
       r="55.891888"
       cx="336"
       cy="840"
       fill="#765bfb"
       id="circle20331"
       style="stroke-width:0.998069" />
    <path
       id="circle20333"
       style="fill:#c35bfb;stroke-width:0.997469"
       d="M 443.61133 672.31055 C 425.04352 673.66381 407.50419 684.89546 398.84764 701.42824 C 389.49078 718.46103 390.04626 740.35 400.21749 756.90776 C 409.94268 773.22245 428.42734 783.78705 447.42694 783.83495 C 466.50405 784.17754 485.29575 773.90579 495.30826 757.66231 C 505.98149 740.93028 506.70276 718.44988 496.96557 701.12425 C 487.04465 682.59252 465.9414 670.80924 444.95014 672.25928 C 444.50387 672.27637 444.0576 672.29346 443.61133 672.31055 z " />
    <path
       id="circle20335"
       style="fill:#5b7bfb;stroke-width:0.956686"
       d="M 331.98242 673.15234 C 311.35245 674.12093 293.38405 689.50094 286.03886 708.3099 C 278.98833 725.96054 282.5022 747.09846 294.4927 761.77553 C 304.81003 775.075 321.89751 782.36027 338.60727 781.4263 C 354.35337 780.77108 369.6707 772.8618 378.91211 760.02148 C 390.51323 744.52947 393.12987 722.54534 384.40857 705.10142 C 375.35533 685.83541 354.63834 672.54379 333.24805 673.11719 C 332.82617 673.12891 332.4043 673.14062 331.98242 673.15234 z " />
    <path
       id="circle20337"
       style="fill:#5b7bfb;stroke-width:0.956686"
       d="M 331.98242 673.15234 C 311.35245 674.12093 293.38405 689.50094 286.03886 708.3099 C 278.98833 725.96054 282.5022 747.09846 294.4927 761.77553 C 304.81003 775.075 321.89751 782.36027 338.60727 781.4263 C 354.35337 780.77108 369.6707 772.8618 378.91211 760.02148 C 390.51323 744.52947 393.12987 722.54534 384.40857 705.10142 C 375.35533 685.83541 354.63834 672.54379 333.24805 673.11719 C 332.82617 673.12891 332.4043 673.14062 331.98242 673.15234 z " />
    <path
       id="circle20339"
       style="fill:#5b7bfb;stroke-width:0.956686"
       d="M 331.98242 673.15234 C 311.35245 674.12093 293.38405 689.50094 286.03886 708.3099 C 278.98833 725.96054 282.5022 747.09846 294.4927 761.77553 C 304.81003 775.075 321.89751 782.36027 338.60727 781.4263 C 354.35337 780.77108 369.6707 772.8618 378.91211 760.02148 C 390.51323 744.52947 393.12987 722.54534 384.40857 705.10142 C 375.35533 685.83541 354.63834 672.54379 333.24805 673.11719 C 332.82617 673.12891 332.4043 673.14062 331.98242 673.15234 z " />
    <path
       id="circle20341"
       style="fill:#c35bfb;stroke-width:0.997469"
       d="M 443.61133 672.31055 C 425.04352 673.66381 407.50419 684.89546 398.84764 701.42824 C 389.49078 718.46103 390.04626 740.35 400.21749 756.90776 C 409.94268 773.22245 428.42734 783.78705 447.42694 783.83495 C 466.50405 784.17754 485.29575 773.90579 495.30826 757.66231 C 505.98149 740.93028 506.70276 718.44988 496.96557 701.12425 C 487.04465 682.59252 465.9414 670.80924 444.95014 672.25928 C 444.50387 672.27637 444.0576 672.29346 443.61133 672.31055 z " />
    <path
       id="circle20343"
       style="fill:#5b7bfb;stroke-width:0.956686"
       d="M 331.98242 673.15234 C 311.35245 674.12093 293.38405 689.50094 286.03886 708.3099 C 278.98833 725.96054 282.5022 747.09846 294.4927 761.77553 C 304.81003 775.075 321.89751 782.36027 338.60727 781.4263 C 354.35337 780.77108 369.6707 772.8618 378.91211 760.02148 C 390.51323 744.52947 393.12987 722.54534 384.40857 705.10142 C 375.35533 685.83541 354.63834 672.54379 333.24805 673.11719 C 332.82617 673.12891 332.4043 673.14062 331.98242 673.15234 z " />
    <circle
       r="56"
       cx="448"
       cy="840"
       fill="#fb5be3"
       id="circle20345" />
    <circle
       r="55.85799"
       cx="560"
       cy="728"
       fill="#fb5bfb"
       id="circle20347"
       style="stroke-width:0.997463" />
    <circle
       r="55.85799"
       cx="560"
       cy="728"
       fill="#fb5bfb"
       id="circle20349"
       style="stroke-width:0.997463" />
    <circle
       r="55.85799"
       cx="560"
       cy="728"
       fill="#fb5bfb"
       id="circle20351"
       style="stroke-width:0.997463" />
  </g>
</svg>
